0
SECTION
2
HEADER
9
$INSUNITS
70
4
9
$ACADVER
1
AC1014
9
$HANDSEED
5
FFFF
0
ENDSEC
0
SECTION
2
TABLES
0
TABLE
2
VPORT
5
8
100
AcDbSymbolTable
0
ENDTAB
0
TABLE
2
LTYPE
5
5
100
AcDbSymbolTable
0
LTYPE
5
14
100
AcDbSymbolTableRecord
100
AcDbLinetypeTableRecord
2
BYBLOCK
70
0
0
LTYPE
5
15
100
AcDbSymbolTableRecord
100
AcDbLinetypeTableRecord
2
BYLAYER
70
0
0
ENDTAB
0
TABLE
2
LAYER
5
2
100
AcDbSymbolTable
70
2
0
LAYER
5
50
100
AcDbSymbolTableRecord
100
AcDbLayerTableRecord
2
0
70
0
6
CONTINUOUS
0
ENDTAB
0
TABLE
2
STYLE
5
3
100
AcDbSymbolTable
70
1
0
STYLE
5
11
100
AcDbSymbolTableRecord
100
AcDbTextStyleTableRecord
2
STANDARD
70
0
0
ENDTAB
0
TABLE
2
VIEW
5
6
100
AcDbSymbolTable
70
0
0
ENDTAB
0
TABLE
2
UCS
5
7
100
AcDbSymbolTable
70
0
0
ENDTAB
0
TABLE
2
APPID
5
9
100
AcDbSymbolTable
70
2
0
APPID
5
12
100
AcDbSymbolTableRecord
100
AcDbRegAppTableRecord
2
ACAD
70
0
0
ENDTAB
0
TABLE
2
DIMSTYLE
5
A
100
AcDbSymbolTable
70
1
0
ENDTAB
0
TABLE
2
BLOCK_RECORD
5
1
100
AcDbSymbolTable
70
1
0
BLOCK_RECORD
5
1F
100
AcDbSymbolTableRecord
100
AcDbBlockTableRecord
2
*MODEL_SPACE
0
BLOCK_RECORD
5
1B
100
AcDbSymbolTableRecord
100
AcDbBlockTableRecord
2
*PAPER_SPACE
0
ENDTAB
0
ENDSEC
0
SECTION
2
BLOCKS
0
BLOCK
5
20
100
AcDbEntity
100
AcDbBlockBegin
2
*MODEL_SPACE
0
ENDBLK
5
21
100
AcDbEntity
100
AcDbBlockEnd
0
BLOCK
5
1C
100
AcDbEntity
100
AcDbBlockBegin
2
*PAPER_SPACE
0
ENDBLK
5
1D
100
AcDbEntity
100
AcDbBlockEnd
0
ENDSEC
0
SECTION
2
ENTITIES
0
LINE
5
100
100
AcDbEntity
8
0
100
AcDbLine
10
-10.497038384723876
20
-6.1640514487211018
30
-0.001453519807146364
11
-12.806439461482366
21
-2.1640514487210805
31
-0.001453519807146364
0
LINE
5
101
100
AcDbEntity
8
0
100
AcDbLine
10
-17.425241614999436
20
-1.3640514487210709
30
-0.001453519807146364
11
-12.80643946148242
21
-1.3640514487210886
31
-0.001453519807146364
0
LINE
5
102
100
AcDbEntity
8
0
100
AcDbLine
10
-19.73464269175793
20
11.435948551278967
30
-0.001453519807146364
11
-17.425241614999436
21
7.4359485512789281
31
-0.001453519807146364
0
LINE
5
103
100
AcDbEntity
8
0
100
AcDbLine
10
-17.425241614999383
20
6.635948551278954
30
-0.001453519807146364
11
-19.73464269175793
21
2.6359485512789682
31
-0.001453519807146364
0
LINE
5
104
100
AcDbEntity
8
0
100
AcDbLine
10
-12.806439461482366
20
-2.1640514487210805
30
-0.001453519807146364
11
-17.425241614999383
21
-2.1640514487210449
31
-0.001453519807146364
0
LINE
5
105
100
AcDbEntity
8
0
100
AcDbLine
10
-12.80643946148242
20
7.4359485512789103
30
-0.001453519807146364
11
-10.497038384723876
21
11.435948551278896
31
-0.001453519807146364
0
LINE
5
106
100
AcDbEntity
8
0
100
AcDbLine
10
-2.2452416149993839
20
15.435948551278953
30
-0.001453519807146364
11
-4.5546426917579277
21
11.435948551278967
31
-0.001453519807146364
0
LINE
5
107
100
AcDbEntity
8
0
100
AcDbLine
10
-12.206520058256087
20
6.9825081792177901
30
-0.001453519807146364
11
-9.8971189814975773
21
2.9825081792177865
31
-0.001453519807146364
0
LINE
5
108
100
AcDbEntity
8
0
100
AcDbLine
10
-12.206520058256087
20
15.782508179217798
30
-0.001453519807146364
11
-9.8971189814975773
21
11.782508179217794
31
-0.001453519807146364
0
LINE
5
109
100
AcDbEntity
8
0
100
AcDbLine
10
4.6829616152761231
20
-50.164051448721104
30
-0.001453519807146364
11
2.3735605385176326
21
-46.164051448721082
31
-0.001453519807146364
0
LINE
5
110
100
AcDbEntity
8
0
100
AcDbLine
10
-2.2452416149993839
20
-54.964051448721058
30
-0.001453519807146364
11
-4.5546426917579277
21
-58.964051448721044
31
-0.001453519807146364
0
LINE
5
111
100
AcDbEntity
8
0
100
AcDbLine
10
-20.458316827980564
20
-15.417491820782194
30
-0.001453519807146364
11
-25.077118981497581
21
-15.417491820782212
31
-0.001453519807146364
0
LINE
5
112
100
AcDbEntity
8
0
100
AcDbLine
10
17.55356053851758
20
-45.364051448721099
30
-0.001453519807146364
11
19.862961615276124
21
-41.364051448721114
31
-0.001453519807146364
0
LINE
5
113
100
AcDbEntity
8
0
100
AcDbLine
10
12.934758385000563
20
-45.364051448721085
30
-0.001453519807146364
11
17.55356053851758
21
-45.364051448721099
31
-0.001453519807146364
0
LINE
5
114
100
AcDbEntity
8
0
100
AcDbLine
10
2.9734799417439159
20
-45.817491820782209
30
-0.001453519807146364
11
5.2828810185024242
21
-49.817491820782216
31
-0.001453519807146364
0
LINE
5
115
100
AcDbEntity
8
0
100
AcDbLine
10
20.462881018502422
20
-41.017491820782219
30
-0.001453519807146364
11
25.081683172019456
21
-41.017491820782219
31
-0.001453519807146364
0
LINE
5
116
100
AcDbEntity
8
0
100
AcDbLine
10
20.462881018502422
20
-41.817491820782209
30
-0.001453519807146364
11
18.153479941743914
21
-45.817491820782209
31
-0.001453519807146364
0
LINE
5
117
100
AcDbEntity
8
0
100
AcDbLine
10
25.081683172019439
20
-41.817491820782202
30
-0.001453519807146364
11
20.462881018502422
21
-41.817491820782209
31
-0.001453519807146364
0
LINE
5
118
100
AcDbEntity
8
0
100
AcDbLine
10
17.55356053851758
20
-54.164051448721089
30
-0.001453519807146364
11
19.862961615276124
21
-50.164051448721104
31
-0.001453519807146364
0
LINE
5
119
100
AcDbEntity
8
0
100
AcDbLine
10
-25.077118981497581
20
-14.617491820782211
30
-0.001453519807146364
11
-20.458316827980546
21
-14.617491820782211
31
-0.001453519807146364
0
LINE
5
120
100
AcDbEntity
8
0
100
AcDbLine
10
27.391084248777947
20
-45.817491820782202
30
-0.001453519807146364
11
25.081683172019439
21
-41.817491820782202
31
-0.001453519807146364
0
LINE
5
121
100
AcDbEntity
8
0
100
AcDbLine
10
-4.5546426917579277
20
-41.364051448721042
30
-0.001453519807146364
11
-2.2452416149994372
21
-45.364051448721085
31
-0.001453519807146364
0
LINE
5
122
100
AcDbEntity
8
0
100
AcDbLine
10
19.862961615276124
20
-50.164051448721104
30
-0.001453519807146364
11
17.553560538517633
21
-46.164051448721082
31
-0.001453519807146364
0
LINE
5
123
100
AcDbEntity
8
0
100
AcDbLine
10
-25.077118981497581
20
-41.817491820782209
30
-0.001453519807146364
11
-27.386520058256089
21
-45.817491820782209
31
-0.001453519807146364
0
LINE
5
124
100
AcDbEntity
8
0
100
AcDbLine
10
5.2828810185024242
20
-41.817491820782209
30
-0.001453519807146364
11
2.9734799417439159
21
-45.817491820782209
31
-0.001453519807146364
0
LINE
5
125
100
AcDbEntity
8
0
100
AcDbLine
10
-27.386520058256089
20
-45.817491820782209
30
-0.001453519807146364
11
-25.077118981497581
21
-49.817491820782216
31
-0.001453519807146364
0
LINE
5
126
100
AcDbEntity
8
0
100
AcDbLine
10
12.211084248777947
20
-45.817491820782202
30
-0.001453519807146364
11
9.9016831720194407
21
-41.817491820782202
31
-0.001453519807146364
0
LINE
5
127
100
AcDbEntity
8
0
100
AcDbLine
10
9.9016831720194585
20
-49.817491820782216
30
-0.001453519807146364
11
12.211084248777947
21
-45.817491820782202
31
-0.001453519807146364
0
LINE
5
128
100
AcDbEntity
8
0
100
AcDbLine
10
-9.8971189814975773
20
-58.61749182078222
30
-0.001453519807146364
11
-5.2783168279805439
21
-58.61749182078222
31
-0.001453519807146364
0
LINE
5
129
100
AcDbEntity
8
0
100
AcDbLine
10
5.2828810185024242
20
-41.017491820782219
30
-0.001453519807146364
11
9.9016831720194585
21
-41.017491820782219
31
-0.001453519807146364
0
LINE
5
130
100
AcDbEntity
8
0
100
AcDbLine
10
-2.2452416149993839
20
-46.164051448721047
30
-0.001453519807146364
11
-4.5546426917579277
21
-50.164051448721033
31
-0.001453519807146364
0
LINE
5
131
100
AcDbEntity
8
0
100
AcDbLine
10
-20.458316827980564
20
-6.6174918207821953
30
-0.001453519807146364
11
-25.077118981497581
21
-6.6174918207822042
31
-0.001453519807146364
0
LINE
5
132
100
AcDbEntity
8
0
100
AcDbLine
10
17.553560538517633
20
-46.164051448721082
30
-0.001453519807146364
11
12.934758385000617
21
-46.164051448721047
31
-0.001453519807146364
0
LINE
5
133
100
AcDbEntity
8
0
100
AcDbLine
10
2.3735605385175793
20
-45.364051448721099
30
-0.001453519807146364
11
4.6829616152761231
21
-41.364051448721114
31
-0.001453519807146364
0
LINE
5
134
100
AcDbEntity
8
0
100
AcDbLine
10
-12.80643946148242
20
-45.364051448721099
30
-0.001453519807146364
11
-10.497038384723876
21
-41.364051448721114
31
-0.001453519807146364
0
LINE
5
135
100
AcDbEntity
8
0
100
AcDbLine
10
-4.5546426917579277
20
37.835948551278975
30
-0.001453519807146364
11
-2.2452416149994372
21
33.835948551278932
31
-0.001453519807146364
0
LINE
5
136
100
AcDbEntity
8
0
100
AcDbLine
10
9.9016831720194407
20
19.7825081792178
30
-0.001453519807146364
11
5.2828810185024242
21
19.7825081792178
31
-0.001453519807146364
0
LINE
5
137
100
AcDbEntity
8
0
100
AcDbLine
10
2.9734799417439159
20
-54.61749182078222
30
-0.001453519807146364
11
5.2828810185024242
21
-58.61749182078222
31
-0.001453519807146364
0
LINE
5
138
100
AcDbEntity
8
0
100
AcDbLine
10
-19.73464269175793
20
-50.164051448721033
30
-0.001453519807146364
11
-17.425241614999436
21
-54.164051448721075
31
-0.001453519807146364
0
LINE
5
139
100
AcDbEntity
8
0
100
AcDbLine
10
17.55356053851758
20
25.035948551278928
30
-0.001453519807146364
11
19.862961615276124
21
29.035948551278913
31
-0.001453519807146364
0
LINE
5
140
100
AcDbEntity
8
0
100
AcDbLine
10
-5.2783168279805617
20
46.182508179217805
30
-0.001453519807146364
11
-9.8971189814975773
21
46.182508179217791
31
-0.001453519807146364
0
LINE
5
141
100
AcDbEntity
8
0
100
AcDbLine
10
-9.8971189814975773
20
29.382508179217794
30
-0.001453519807146364
11
-5.2783168279805439
21
29.382508179217794
31
-0.001453519807146364
0
LINE
5
142
100
AcDbEntity
8
0
100
AcDbLine
10
-5.2783168279805439
20
20.582508179217804
30
-0.001453519807146364
11
-2.9689157512220534
21
24.582508179217804
31
-0.001453519807146364
0
LINE
5
143
100
AcDbEntity
8
0
100
AcDbLine
10
19.862961615276124
20
11.435948551278896
30
-0.001453519807146364
11
17.553560538517633
21
15.435948551278917
31
-0.001453519807146364
0
LINE
5
144
100
AcDbEntity
8
0
100
AcDbLine
10
-10.497038384723876
20
-50.164051448721104
30
-0.001453519807146364
11
-12.806439461482366
21
-46.164051448721082
31
-0.001453519807146364
0
LINE
5
145
100
AcDbEntity
8
0
100
AcDbLine
10
17.553560538517633
20
24.235948551278923
30
-0.001453519807146364
11
12.934758385000617
21
24.235948551278959
31
-0.001453519807146364
0
LINE
5
146
100
AcDbEntity
8
0
100
AcDbLine
10
-12.806439461482366
20
50.635948551278929
30
-0.001453519807146364
11
-17.425241614999383
21
50.635948551278965
31
-0.001453519807146364
0
LINE
5
147
100
AcDbEntity
8
0
100
AcDbLine
10
-12.806439461482366
20
41.835948551278925
30
-0.001453519807146364
11
-17.425241614999383
21
41.83594855127896
31
-0.001453519807146364
0
LINE
5
148
100
AcDbEntity
8
0
100
AcDbLine
10
-19.73464269175793
20
-41.364051448721042
30
-0.001453519807146364
11
-17.425241614999436
21
-45.364051448721085
31
-0.001453519807146364
0
LINE
5
149
100
AcDbEntity
8
0
100
AcDbLine
10
17.55356053851758
20
16.235948551278916
30
-0.001453519807146364
11
19.862961615276124
21
20.235948551278902
31
-0.001453519807146364
0
LINE
5
150
100
AcDbEntity
8
0
100
AcDbLine
10
10.625357308242073
20
29.035948551278985
30
-0.001453519807146364
11
12.934758385000563
21
25.035948551278928
31
-0.001453519807146364
0
LINE
5
151
100
AcDbEntity
8
0
100
AcDbLine
10
-12.206520058256087
20
42.182508179217805
30
-0.001453519807146364
11
-9.8971189814975773
21
38.182508179217784
31
-0.001453519807146364
0
LINE
5
152
100
AcDbEntity
8
0
100
AcDbLine
10
-9.8971189814975773
20
20.582508179217804
30
-0.001453519807146364
11
-5.2783168279805439
21
20.582508179217804
31
-0.001453519807146364
0
LINE
5
153
100
AcDbEntity
8
0
100
AcDbLine
10
12.934758385000563
20
25.035948551278928
30
-0.001453519807146364
11
17.55356053851758
21
25.035948551278928
31
-0.001453519807146364
0
LINE
5
154
100
AcDbEntity
8
0
100
AcDbLine
10
4.6829616152761231
20
20.235948551278902
30
-0.001453519807146364
11
2.3735605385176326
21
24.235948551278923
31
-0.001453519807146364
0
LINE
5
155
100
AcDbEntity
8
0
100
AcDbLine
10
-2.2452416149994372
20
25.035948551278928
30
-0.001453519807146364
11
2.3735605385175793
21
25.035948551278928
31
-0.001453519807146364
0
LINE
5
156
100
AcDbEntity
8
0
100
AcDbLine
10
-25.077118981497581
20
29.382508179217794
30
-0.001453519807146364
11
-20.458316827980546
21
29.382508179217794
31
-0.001453519807146364
0
LINE
5
157
100
AcDbEntity
8
0
100
AcDbLine
10
-12.206520058256087
20
-45.817491820782209
30
-0.001453519807146364
11
-9.8971189814975773
21
-49.817491820782216
31
-0.001453519807146364
0
LINE
5
158
100
AcDbEntity
8
0
100
AcDbLine
10
-17.425241614999383
20
50.635948551278965
30
-0.001453519807146364
11
-19.73464269175793
21
46.635948551278979
31
-0.001453519807146364
0
LINE
5
159
100
AcDbEntity
8
0
100
AcDbLine
10
-9.8971189814975773
20
-41.817491820782209
30
-0.001453519807146364
11
-12.206520058256087
21
-45.817491820782209
31
-0.001453519807146364
0
LINE
5
160
100
AcDbEntity
8
0
100
AcDbLine
10
-12.80643946148242
20
-54.164051448721089
30
-0.001453519807146364
11
-10.497038384723876
21
-50.164051448721104
31
-0.001453519807146364
0
LINE
5
161
100
AcDbEntity
8
0
100
AcDbLine
10
-5.2783168279805617
20
28.582508179217811
30
-0.001453519807146364
11
-9.8971189814975773
21
28.582508179217811
31
-0.001453519807146364
0
LINE
5
162
100
AcDbEntity
8
0
100
AcDbLine
10
27.391084248777947
20
-1.8174918207822
30
-0.001453519807146364
11
25.081683172019439
21
2.1825081792178036
31
-0.001453519807146364
0
LINE
5
163
100
AcDbEntity
8
0
100
AcDbLine
10
-17.425241614999383
20
41.83594855127896
30
-0.001453519807146364
11
-19.73464269175793
21
37.835948551278975
31
-0.001453519807146364
0
LINE
5
164
100
AcDbEntity
8
0
100
AcDbLine
10
20.462881018502422
20
2.1825081792177947
30
-0.001453519807146364
11
18.153479941743914
21
-1.8174918207822088
31
-0.001453519807146364
0
LINE
5
165
100
AcDbEntity
8
0
100
AcDbLine
10
-4.5546426917579277
20
29.035948551278985
30
-0.001453519807146364
11
-2.2452416149994372
21
25.035948551278928
31
-0.001453519807146364
0
LINE
5
166
100
AcDbEntity
8
0
100
AcDbLine
10
-25.077118981497581
20
-6.6174918207822042
30
-0.001453519807146364
11
-27.386520058256089
21
-10.617491820782208
31
-0.001453519807146364
0
LINE
5
167
100
AcDbEntity
8
0
100
AcDbLine
10
-9.8971189814975773
20
37.382508179217801
30
-0.001453519807146364
11
-12.206520058256087
21
33.382508179217794
31
-0.001453519807146364
0
LINE
5
168
100
AcDbEntity
8
0
100
AcDbLine
10
2.9734799417439159
20
50.982508179217795
30
-0.001453519807146364
11
5.2828810185024242
21
46.98250817921781
31
-0.001453519807146364
0
LINE
5
169
100
AcDbEntity
8
0
100
AcDbLine
10
-9.8971189814975773
20
38.182508179217784
30
-0.001453519807146364
11
-5.2783168279805439
21
38.182508179217784
31
-0.001453519807146364
0
LINE
5
170
100
AcDbEntity
8
0
100
AcDbLine
10
-5.2783168279805617
20
37.382508179217801
30
-0.001453519807146364
11
-9.8971189814975773
21
37.382508179217801
31
-0.001453519807146364
0
LINE
5
171
100
AcDbEntity
8
0
100
AcDbLine
10
-9.8971189814975773
20
-41.017491820782219
30
-0.001453519807146364
11
-5.2783168279805439
21
-41.017491820782219
31
-0.001453519807146364
0
LINE
5
172
100
AcDbEntity
8
0
100
AcDbLine
10
-20.458316827980564
20
-41.817491820782202
30
-0.001453519807146364
11
-25.077118981497581
21
-41.817491820782209
31
-0.001453519807146364
0
LINE
5
173
100
AcDbEntity
8
0
100
AcDbLine
10
-12.806439461482366
20
-46.164051448721082
30
-0.001453519807146364
11
-17.425241614999383
21
-46.164051448721047
31
-0.001453519807146364
0
LINE
5
174
100
AcDbEntity
8
0
100
AcDbLine
10
-5.2783168279805439
20
-23.417491820782217
30
-0.001453519807146364
11
-2.9689157512220534
21
-19.417491820782196
31
-0.001453519807146364
0
LINE
5
175
100
AcDbEntity
8
0
100
AcDbLine
10
-2.9689157512220534
20
33.382508179217815
30
-0.001453519807146364
11
-5.2783168279805617
21
37.382508179217801
31
-0.001453519807146364
0
LINE
5
176
100
AcDbEntity
8
0
100
AcDbLine
10
17.55356053851758
20
7.4359485512789103
30
-0.001453519807146364
11
19.862961615276124
21
11.435948551278896
31
-0.001453519807146364
0
LINE
5
177
100
AcDbEntity
8
0
100
AcDbLine
10
-25.077118981497581
20
-49.817491820782216
30
-0.001453519807146364
11
-20.458316827980546
21
-49.817491820782216
31
-0.001453519807146364
0
LINE
5
178
100
AcDbEntity
8
0
100
AcDbLine
10
-10.497038384723876
20
37.835948551278904
30
-0.001453519807146364
11
-12.806439461482366
21
41.835948551278925
31
-0.001453519807146364
0
LINE
5
179
100
AcDbEntity
8
0
100
AcDbLine
10
-2.9689157512220534
20
42.182508179217805
30
-0.001453519807146364
11
-5.2783168279805617
21
46.182508179217805
31
-0.001453519807146364
0
LINE
5
180
100
AcDbEntity
8
0
100
AcDbLine
10
-2.2452416149994372
20
-45.364051448721085
30
-0.001453519807146364
11
2.3735605385175793
21
-45.364051448721099
31
-0.001453519807146364
0
LINE
5
181
100
AcDbEntity
8
0
100
AcDbLine
10
-2.9689157512220534
20
-45.817491820782202
30
-0.001453519807146364
11
-5.2783168279805617
21
-41.817491820782202
31
-0.001453519807146364
0
LINE
5
182
100
AcDbEntity
8
0
100
AcDbLine
10
-25.077118981497581
20
-15.417491820782212
30
-0.001453519807146364
11
-27.386520058256089
21
-19.417491820782217
31
-0.001453519807146364
0
LINE
5
183
100
AcDbEntity
8
0
100
AcDbLine
10
-27.386520058256089
20
-10.617491820782208
30
-0.001453519807146364
11
-25.077118981497581
21
-14.617491820782211
31
-0.001453519807146364
0
LINE
5
184
100
AcDbEntity
8
0
100
AcDbLine
10
-9.8971189814975773
20
-15.417491820782212
30
-0.001453519807146364
11
-12.206520058256087
21
-19.417491820782217
31
-0.001453519807146364
0
LINE
5
185
100
AcDbEntity
8
0
100
AcDbLine
10
17.55356053851758
20
-1.3640514487210886
30
-0.001453519807146364
11
19.862961615276124
21
2.6359485512788972
31
-0.001453519807146364
0
LINE
5
186
100
AcDbEntity
8
0
100
AcDbLine
10
2.3735605385175793
20
16.235948551278916
30
-0.001453519807146364
11
4.6829616152761231
21
20.235948551278902
31
-0.001453519807146364
0
LINE
5
187
100
AcDbEntity
8
0
100
AcDbLine
10
20.462881018502422
20
-49.817491820782216
30
-0.001453519807146364
11
25.081683172019456
21
-49.817491820782216
31
-0.001453519807146364
0
LINE
5
188
100
AcDbEntity
8
0
100
AcDbLine
10
-18.148915751222052
20
33.382508179217815
30
-0.001453519807146364
11
-20.458316827980564
21
37.382508179217801
31
-0.001453519807146364
0
LINE
5
189
100
AcDbEntity
8
0
100
AcDbLine
10
19.862961615276124
20
2.6359485512788972
30
-0.001453519807146364
11
17.553560538517633
21
6.6359485512789185
31
-0.001453519807146364
0
LINE
5
190
100
AcDbEntity
8
0
100
AcDbLine
10
27.391084248777947
20
-19.417491820782196
30
-0.001453519807146364
11
25.081683172019439
21
-15.417491820782194
31
-0.001453519807146364
0
LINE
5
191
100
AcDbEntity
8
0
100
AcDbLine
10
-19.73464269175793
20
37.835948551278975
30
-0.001453519807146364
11
-17.425241614999436
21
33.835948551278932
31
-0.001453519807146364
0
LINE
5
192
100
AcDbEntity
8
0
100
AcDbLine
10
12.934758385000617
20
-46.164051448721047
30
-0.001453519807146364
11
10.625357308242073
21
-50.164051448721033
31
-0.001453519807146364
0
LINE
5
193
100
AcDbEntity
8
0
100
AcDbLine
10
25.081683172019456
20
-23.417491820782217
30
-0.001453519807146364
11
27.391084248777947
21
-19.417491820782196
31
-0.001453519807146364
0
LINE
5
194
100
AcDbEntity
8
0
100
AcDbLine
10
-12.206520058256087
20
50.982508179217795
30
-0.001453519807146364
11
-9.8971189814975773
21
46.98250817921781
31
-0.001453519807146364
0
LINE
5
195
100
AcDbEntity
8
0
100
AcDbLine
10
2.3735605385176326
20
-46.164051448721082
30
-0.001453519807146364
11
-2.2452416149993839
21
-46.164051448721047
31
-0.001453519807146364
0
LINE
5
196
100
AcDbEntity
8
0
100
AcDbLine
10
-27.386520058256089
20
-19.417491820782217
30
-0.001453519807146364
11
-25.077118981497581
21
-23.417491820782217
31
-0.001453519807146364
0
LINE
5
197
100
AcDbEntity
8
0
100
AcDbLine
10
-18.148915751222052
20
-19.417491820782196
30
-0.001453519807146364
11
-20.458316827980564
21
-15.417491820782194
31
-0.001453519807146364
0
LINE
5
198
100
AcDbEntity
8
0
100
AcDbLine
10
-9.8971189814975773
20
46.182508179217791
30
-0.001453519807146364
11
-12.206520058256087
21
42.182508179217805
31
-0.001453519807146364
0
LINE
5
199
100
AcDbEntity
8
0
100
AcDbLine
10
-5.2783168279805439
20
38.182508179217784
30
-0.001453519807146364
11
-2.9689157512220534
21
42.182508179217805
31
-0.001453519807146364
0
LINE
5
200
100
AcDbEntity
8
0
100
AcDbLine
10
-5.2783168279805439
20
-49.817491820782216
30
-0.001453519807146364
11
-2.9689157512220534
21
-45.817491820782202
31
-0.001453519807146364
0
LINE
5
201
100
AcDbEntity
8
0
100
AcDbLine
10
12.934758385000563
20
-54.164051448721075
30
-0.001453519807146364
11
17.55356053851758
21
-54.164051448721089
31
-0.001453519807146364
0
LINE
5
202
100
AcDbEntity
8
0
100
AcDbLine
10
-20.458316827980546
20
38.182508179217784
30
-0.001453519807146364
11
-18.148915751222052
21
42.182508179217805
31
-0.001453519807146364
0
LINE
5
203
100
AcDbEntity
8
0
100
AcDbLine
10
2.3735605385175793
20
-54.164051448721089
30
-0.001453519807146364
11
4.6829616152761231
21
-50.164051448721104
31
-0.001453519807146364
0
LINE
5
204
100
AcDbEntity
8
0
100
AcDbLine
10
2.3735605385176326
20
-54.964051448721094
30
-0.001453519807146364
11
-2.2452416149993839
21
-54.964051448721058
31
-0.001453519807146364
0
LINE
5
205
100
AcDbEntity
8
0
100
AcDbLine
10
5.2828810185024242
20
-49.817491820782216
30
-0.001453519807146364
11
9.9016831720194585
21
-49.817491820782216
31
-0.001453519807146364
0
LINE
5
206
100
AcDbEntity
8
0
100
AcDbLine
10
-17.425241614999436
20
42.635948551278943
30
-0.001453519807146364
11
-12.80643946148242
21
42.635948551278922
31
-0.001453519807146364
0
LINE
5
207
100
AcDbEntity
8
0
100
AcDbLine
10
10.625357308242073
20
-41.364051448721042
30
-0.001453519807146364
11
12.934758385000563
21
-45.364051448721085
31
-0.001453519807146364
0
LINE
5
208
100
AcDbEntity
8
0
100
AcDbLine
10
-25.077118981497581
20
-5.8174918207822124
30
-0.001453519807146364
11
-20.458316827980546
21
-5.8174918207822124
31
-0.001453519807146364
0
LINE
5
209
100
AcDbEntity
8
0
100
AcDbLine
10
5.2828810185024242
20
-15.417491820782212
30
-0.001453519807146364
11
2.9734799417439159
21
-19.417491820782217
31
-0.001453519807146364
0
LINE
5
210
100
AcDbEntity
8
0
100
AcDbLine
10
-2.2452416149994372
20
-54.164051448721075
30
-0.001453519807146364
11
2.3735605385175793
21
-54.164051448721089
31
-0.001453519807146364
0
LINE
5
211
100
AcDbEntity
8
0
100
AcDbLine
10
-12.80643946148242
20
33.835948551278918
30
-0.001453519807146364
11
-10.497038384723876
21
37.835948551278904
31
-0.001453519807146364
0
LINE
5
212
100
AcDbEntity
8
0
100
AcDbLine
10
9.9016831720194407
20
-41.817491820782202
30
-0.001453519807146364
11
5.2828810185024242
21
-41.817491820782209
31
-0.001453519807146364
0
LINE
5
213
100
AcDbEntity
8
0
100
AcDbLine
10
5.2828810185024242
20
46.182508179217791
30
-0.001453519807146364
11
2.9734799417439159
21
42.182508179217805
31
-0.001453519807146364
0
LINE
5
214
100
AcDbEntity
8
0
100
AcDbLine
10
-17.425241614999436
20
-36.564051448721074
30
-0.001453519807146364
11
-12.80643946148242
21
-36.564051448721095
31
-0.001453519807146364
0
LINE
5
215
100
AcDbEntity
8
0
100
AcDbLine
10
12.934758385000617
20
41.83594855127896
30
-0.001453519807146364
11
10.625357308242073
21
37.835948551278975
31
-0.001453519807146364
0
LINE
5
216
100
AcDbEntity
8
0
100
AcDbLine
10
-9.8971189814975773
20
-33.017491820782212
30
-0.001453519807146364
11
-12.206520058256087
21
-37.017491820782212
31
-0.001453519807146364
0
LINE
5
217
100
AcDbEntity
8
0
100
AcDbLine
10
-5.2783168279805617
20
-24.2174918207822
30
-0.001453519807146364
11
-9.8971189814975773
21
-24.217491820782211
31
-0.001453519807146364
0
LINE
5
218
100
AcDbEntity
8
0
100
AcDbLine
10
12.934758385000617
20
50.635948551278965
30
-0.001453519807146364
11
10.625357308242073
21
46.635948551278979
31
-0.001453519807146364
0
LINE
5
219
100
AcDbEntity
8
0
100
AcDbLine
10
-19.73464269175793
20
55.435948551278969
30
-0.001453519807146364
11
-17.425241614999436
21
51.435948551278933
31
-0.001453519807146364
0
LINE
5
220
100
AcDbEntity
8
0
100
AcDbLine
10
-12.806439461482366
20
59.435948551278919
30
-0.001453519807146364
11
-17.425241614999383
21
59.435948551278955
31
-0.001453519807146364
0
LINE
5
221
100
AcDbEntity
8
0
100
AcDbLine
10
-10.497038384723876
20
-32.564051448721109
30
-0.001453519807146364
11
-12.806439461482366
21
-28.564051448721088
31
-0.001453519807146364
0
LINE
5
222
100
AcDbEntity
8
0
100
AcDbLine
10
-12.80643946148242
20
51.435948551278912
30
-0.001453519807146364
11
-10.497038384723876
21
55.435948551278898
31
-0.001453519807146364
0
LINE
5
223
100
AcDbEntity
8
0
100
AcDbLine
10
17.553560538517633
20
50.635948551278929
30
-0.001453519807146364
11
12.934758385000617
21
50.635948551278965
31
-0.001453519807146364
0
LINE
5
224
100
AcDbEntity
8
0
100
AcDbLine
10
10.625357308242073
20
37.835948551278975
30
-0.001453519807146364
11
12.934758385000563
21
33.835948551278932
31
-0.001453519807146364
0
LINE
5
225
100
AcDbEntity
8
0
100
AcDbLine
10
-17.425241614999436
20
51.435948551278933
30
-0.001453519807146364
11
-12.80643946148242
21
51.435948551278912
31
-0.001453519807146364
0
LINE
5
226
100
AcDbEntity
8
0
100
AcDbLine
10
-12.80643946148242
20
-27.764051448721084
30
-0.001453519807146364
11
-10.497038384723876
21
-23.764051448721098
31
-0.001453519807146364
0
LINE
5
227
100
AcDbEntity
8
0
100
AcDbLine
10
-18.148915751222052
20
-28.217491820782207
30
-0.001453519807146364
11
-20.458316827980564
21
-24.2174918207822
31
-0.001453519807146364
0
LINE
5
228
100
AcDbEntity
8
0
100
AcDbLine
10
-4.5546426917579277
20
55.435948551278969
30
-0.001453519807146364
11
-2.2452416149994372
21
51.435948551278933
31
-0.001453519807146364
0
LINE
5
229
100
AcDbEntity
8
0
100
AcDbLine
10
-2.9689157512220534
20
59.782508179217821
30
-0.001453519807146364
11
-5.2783168279805617
21
63.782508179217807
31
-0.001453519807146364
0
LINE
5
230
100
AcDbEntity
8
0
100
AcDbLine
10
-12.806439461482366
20
-28.564051448721088
30
-0.001453519807146364
11
-17.425241614999383
21
-28.564051448721052
31
-0.001453519807146364
0
LINE
5
231
100
AcDbEntity
8
0
100
AcDbLine
10
-25.077118981497581
20
37.382508179217801
30
-0.001453519807146364
11
-27.386520058256089
21
33.382508179217794
31
-0.001453519807146364
0
LINE
5
232
100
AcDbEntity
8
0
100
AcDbLine
10
-2.2452416149993839
20
59.435948551278955
30
-0.001453519807146364
11
-4.5546426917579277
21
55.435948551278969
31
-0.001453519807146364
0
LINE
5
233
100
AcDbEntity
8
0
100
AcDbLine
10
-17.425241614999383
20
59.435948551278955
30
-0.001453519807146364
11
-19.73464269175793
21
55.435948551278969
31
-0.001453519807146364
0
LINE
5
234
100
AcDbEntity
8
0
100
AcDbLine
10
12.211084248777947
20
42.182508179217805
30
-0.001453519807146364
11
9.9016831720194407
21
46.182508179217805
31
-0.001453519807146364
0
LINE
5
235
100
AcDbEntity
8
0
100
AcDbLine
10
2.3735605385175793
20
42.635948551278922
30
-0.001453519807146364
11
4.6829616152761231
21
46.635948551278908
31
-0.001453519807146364
0
LINE
5
236
100
AcDbEntity
8
0
100
AcDbLine
10
9.9016831720194407
20
-6.6174918207821953
30
-0.001453519807146364
11
5.2828810185024242
21
-6.6174918207822042
31
-0.001453519807146364
0
LINE
5
237
100
AcDbEntity
8
0
100
AcDbLine
10
-4.5546426917579277
20
-23.764051448721027
30
-0.001453519807146364
11
-2.2452416149994372
21
-27.764051448721069
31
-0.001453519807146364
0
LINE
5
238
100
AcDbEntity
8
0
100
AcDbLine
10
-2.2452416149993839
20
-10.964051448721044
30
-0.001453519807146364
11
-4.5546426917579277
21
-14.96405144872103
31
-0.001453519807146364
0
LINE
5
239
100
AcDbEntity
8
0
100
AcDbLine
10
5.2828810185024242
20
-6.6174918207822042
30
-0.001453519807146364
11
2.9734799417439159
21
-10.617491820782208
31
-0.001453519807146364
0
LINE
5
240
100
AcDbEntity
8
0
100
AcDbLine
10
-2.2452416149994372
20
-36.564051448721074
30
-0.001453519807146364
11
2.3735605385175793
21
-36.564051448721095
31
-0.001453519807146364
0
LINE
5
241
100
AcDbEntity
8
0
100
AcDbLine
10
-12.806439461482366
20
-19.764051448721077
30
-0.001453519807146364
11
-17.425241614999383
21
-19.764051448721041
31
-0.001453519807146364
0
LINE
5
242
100
AcDbEntity
8
0
100
AcDbLine
10
9.9016831720194407
20
46.182508179217805
30
-0.001453519807146364
11
5.2828810185024242
21
46.182508179217791
31
-0.001453519807146364
0
LINE
5
243
100
AcDbEntity
8
0
100
AcDbLine
10
-9.8971189814975773
20
63.782508179217807
30
-0.001453519807146364
11
-12.206520058256087
21
59.7825081792178
31
-0.001453519807146364
0
LINE
5
244
100
AcDbEntity
8
0
100
AcDbLine
10
-18.148915751222052
20
-37.017491820782205
30
-0.001453519807146364
11
-20.458316827980564
21
-33.017491820782197
31
-0.001453519807146364
0
LINE
5
245
100
AcDbEntity
8
0
100
AcDbLine
10
-9.8971189814975773
20
-23.417491820782217
30
-0.001453519807146364
11
-5.2783168279805439
21
-23.417491820782217
31
-0.001453519807146364
0
LINE
5
246
100
AcDbEntity
8
0
100
AcDbLine
10
-12.80643946148242
20
-36.564051448721095
30
-0.001453519807146364
11
-10.497038384723876
21
-32.564051448721109
31
-0.001453519807146364
0
LINE
5
247
100
AcDbEntity
8
0
100
AcDbLine
10
5.2828810185024242
20
-5.8174918207822124
30
-0.001453519807146364
11
9.9016831720194585
21
-5.8174918207822124
31
-0.001453519807146364
0
LINE
5
248
100
AcDbEntity
8
0
100
AcDbLine
10
4.6829616152761231
20
-14.964051448721101
30
-0.001453519807146364
11
2.3735605385176326
21
-10.964051448721079
31
-0.001453519807146364
0
LINE
5
249
100
AcDbEntity
8
0
100
AcDbLine
10
-4.5546426917579277
20
-6.1640514487210307
30
-0.001453519807146364
11
-2.2452416149994372
21
-10.16405144872107
31
-0.001453519807146364
0
LINE
5
250
100
AcDbEntity
8
0
100
AcDbLine
10
12.934758385000617
20
-10.964051448721044
30
-0.001453519807146364
11
10.625357308242073
21
-14.96405144872103
31
-0.001453519807146364
0
LINE
5
251
100
AcDbEntity
8
0
100
AcDbLine
10
-4.5546426917579277
20
-14.96405144872103
30
-0.001453519807146364
11
-2.2452416149994372
21
-18.964051448721069
31
-0.001453519807146364
0
LINE
5
252
100
AcDbEntity
8
0
100
AcDbLine
10
-2.9689157512220534
20
-28.217491820782207
30
-0.001453519807146364
11
-5.2783168279805617
21
-24.2174918207822
31
-0.001453519807146364
0
LINE
5
253
100
AcDbEntity
8
0
100
AcDbLine
10
-4.5546426917579277
20
-50.164051448721033
30
-0.001453519807146364
11
-2.2452416149994372
21
-54.164051448721075
31
-0.001453519807146364
0
LINE
5
254
100
AcDbEntity
8
0
100
AcDbLine
10
-5.2783168279805617
20
-6.6174918207821953
30
-0.001453519807146364
11
-9.8971189814975773
21
-6.6174918207822042
31
-0.001453519807146364
0
LINE
5
255
100
AcDbEntity
8
0
100
AcDbLine
10
2.3735605385175793
20
-18.964051448721087
30
-0.001453519807146364
11
4.6829616152761231
21
-14.964051448721101
31
-0.001453519807146364
0
LINE
5
256
100
AcDbEntity
8
0
100
AcDbLine
10
-2.2452416149994372
20
-27.764051448721069
30
-0.001453519807146364
11
2.3735605385175793
21
-27.764051448721084
31
-0.001453519807146364
0
LINE
5
257
100
AcDbEntity
8
0
100
AcDbLine
10
9.9016831720194407
20
-50.617491820782206
30
-0.001453519807146364
11
5.2828810185024242
21
-50.61749182078222
31
-0.001453519807146364
0
LINE
5
258
100
AcDbEntity
8
0
100
AcDbLine
10
2.3735605385176326
20
-37.364051448721092
30
-0.001453519807146364
11
-2.2452416149993839
21
-37.364051448721057
31
-0.001453519807146364
0
LINE
5
259
100
AcDbEntity
8
0
100
AcDbLine
10
2.3735605385176326
20
-19.764051448721077
30
-0.001453519807146364
11
-2.2452416149993839
21
-19.764051448721041
31
-0.001453519807146364
0
LINE
5
260
100
AcDbEntity
8
0
100
AcDbLine
10
10.625357308242073
20
-50.164051448721033
30
-0.001453519807146364
11
12.934758385000563
21
-54.164051448721075
31
-0.001453519807146364
0
LINE
5
261
100
AcDbEntity
8
0
100
AcDbLine
10
-20.458316827980546
20
-32.217491820782215
30
-0.001453519807146364
11
-18.148915751222052
21
-28.217491820782207
31
-0.001453519807146364
0
LINE
5
262
100
AcDbEntity
8
0
100
AcDbLine
10
-27.386520058256089
20
42.182508179217805
30
-0.001453519807146364
11
-25.077118981497581
21
38.182508179217784
31
-0.001453519807146364
0
LINE
5
263
100
AcDbEntity
8
0
100
AcDbLine
10
25.081683172019456
20
-49.817491820782216
30
-0.001453519807146364
11
27.391084248777947
21
-45.817491820782202
31
-0.001453519807146364
0
LINE
5
264
100
AcDbEntity
8
0
100
AcDbLine
10
-9.8971189814975773
20
-32.217491820782215
30
-0.001453519807146364
11
-5.2783168279805439
21
-32.217491820782215
31
-0.001453519807146364
0
LINE
5
265
100
AcDbEntity
8
0
100
AcDbLine
10
-12.206520058256087
20
-28.217491820782215
30
-0.001453519807146364
11
-9.8971189814975773
21
-32.217491820782215
31
-0.001453519807146364
0
LINE
5
266
100
AcDbEntity
8
0
100
AcDbLine
10
18.153479941743914
20
-45.817491820782209
30
-0.001453519807146364
11
20.462881018502422
21
-49.817491820782216
31
-0.001453519807146364
0
LINE
5
267
100
AcDbEntity
8
0
100
AcDbLine
10
-9.8971189814975773
20
-14.617491820782211
30
-0.001453519807146364
11
-5.2783168279805439
21
-14.617491820782211
31
-0.001453519807146364
0
LINE
5
268
100
AcDbEntity
8
0
100
AcDbLine
10
-4.5546426917579277
20
-32.564051448721038
30
-0.001453519807146364
11
-2.2452416149994372
21
-36.564051448721074
31
-0.001453519807146364
0
LINE
5
269
100
AcDbEntity
8
0
100
AcDbLine
10
-2.2452416149994372
20
-10.16405144872107
30
-0.001453519807146364
11
2.3735605385175793
21
-10.164051448721088
31
-0.001453519807146364
0
LINE
5
270
100
AcDbEntity
8
0
100
AcDbLine
10
-5.2783168279805617
20
-33.017491820782197
30
-0.001453519807146364
11
-9.8971189814975773
21
-33.017491820782212
31
-0.001453519807146364
0
LINE
5
271
100
AcDbEntity
8
0
100
AcDbLine
10
2.9734799417439159
20
-10.617491820782208
30
-0.001453519807146364
11
5.2828810185024242
21
-14.617491820782211
31
-0.001453519807146364
0
LINE
5
272
100
AcDbEntity
8
0
100
AcDbLine
10
-17.425241614999383
20
-19.764051448721041
30
-0.001453519807146364
11
-19.73464269175793
21
-23.764051448721027
31
-0.001453519807146364
0
LINE
5
273
100
AcDbEntity
8
0
100
AcDbLine
10
-2.2452416149993839
20
-28.564051448721052
30
-0.001453519807146364
11
-4.5546426917579277
21
-32.564051448721038
31
-0.001453519807146364
0
LINE
5
274
100
AcDbEntity
8
0
100
AcDbLine
10
-20.458316827980564
20
37.382508179217801
30
-0.001453519807146364
11
-25.077118981497581
21
37.382508179217801
31
-0.001453519807146364
0
LINE
5
275
100
AcDbEntity
8
0
100
AcDbLine
10
10.625357308242073
20
-14.96405144872103
30
-0.001453519807146364
11
12.934758385000563
21
-18.964051448721069
31
-0.001453519807146364
0
LINE
5
276
100
AcDbEntity
8
0
100
AcDbLine
10
-10.497038384723876
20
-23.764051448721098
30
-0.001453519807146364
11
-12.806439461482366
21
-19.764051448721077
31
-0.001453519807146364
0
LINE
5
277
100
AcDbEntity
8
0
100
AcDbLine
10
-5.2783168279805439
20
-14.617491820782211
30
-0.001453519807146364
11
-2.9689157512220534
21
-10.617491820782199
31
-0.001453519807146364
0
LINE
5
278
100
AcDbEntity
8
0
100
AcDbLine
10
-5.2783168279805439
20
-32.217491820782215
30
-0.001453519807146364
11
-2.9689157512220534
21
-28.217491820782207
31
-0.001453519807146364
0
LINE
5
279
100
AcDbEntity
8
0
100
AcDbLine
10
9.9016831720194407
20
-15.417491820782194
30
-0.001453519807146364
11
5.2828810185024242
21
-15.417491820782212
31
-0.001453519807146364
0
LINE
5
280
100
AcDbEntity
8
0
100
AcDbLine
10
-20.458316827980564
20
46.182508179217805
30
-0.001453519807146364
11
-25.077118981497581
21
46.182508179217791
31
-0.001453519807146364
0
LINE
5
281
100
AcDbEntity
8
0
100
AcDbLine
10
-2.2452416149993839
20
-19.764051448721041
30
-0.001453519807146364
11
-4.5546426917579277
21
-23.764051448721027
31
-0.001453519807146364
0
LINE
5
282
100
AcDbEntity
8
0
100
AcDbLine
10
-2.9689157512220534
20
-37.017491820782205
30
-0.001453519807146364
11
-5.2783168279805617
21
-33.017491820782197
31
-0.001453519807146364
0
LINE
5
283
100
AcDbEntity
8
0
100
AcDbLine
10
2.3735605385175793
20
-10.164051448721088
30
-0.001453519807146364
11
4.6829616152761231
21
-6.1640514487211018
31
-0.001453519807146364
0
LINE
5
284
100
AcDbEntity
8
0
100
AcDbLine
10
2.3735605385176326
20
-10.964051448721079
30
-0.001453519807146364
11
-2.2452416149993839
21
-10.964051448721044
31
-0.001453519807146364
0
LINE
5
285
100
AcDbEntity
8
0
100
AcDbLine
10
4.6829616152761231
20
-58.964051448721115
30
-0.001453519807146364
11
2.3735605385176326
21
-54.964051448721094
31
-0.001453519807146364
0
LINE
5
286
100
AcDbEntity
8
0
100
AcDbLine
10
-9.8971189814975773
20
-24.217491820782211
30
-0.001453519807146364
11
-12.206520058256087
21
-28.217491820782215
31
-0.001453519807146364
0
LINE
5
287
100
AcDbEntity
8
0
100
AcDbLine
10
10.625357308242073
20
-6.1640514487210307
30
-0.001453519807146364
11
12.934758385000563
21
-10.16405144872107
31
-0.001453519807146364
0
LINE
5
288
100
AcDbEntity
8
0
100
AcDbLine
10
-2.9689157512220534
20
-10.617491820782199
30
-0.001453519807146364
11
-5.2783168279805617
21
-6.6174918207821953
31
-0.001453519807146364
0
LINE
5
289
100
AcDbEntity
8
0
100
AcDbLine
10
-17.425241614999436
20
-27.764051448721069
30
-0.001453519807146364
11
-12.80643946148242
21
-27.764051448721084
31
-0.001453519807146364
0
LINE
5
290
100
AcDbEntity
8
0
100
AcDbLine
10
9.9016831720194585
20
-14.617491820782211
30
-0.001453519807146364
11
12.211084248777947
21
-10.617491820782199
31
-0.001453519807146364
0
LINE
5
291
100
AcDbEntity
8
0
100
AcDbLine
10
2.3735605385176326
20
-28.564051448721088
30
-0.001453519807146364
11
-2.2452416149993839
21
-28.564051448721052
31
-0.001453519807146364
0
LINE
5
292
100
AcDbEntity
8
0
100
AcDbLine
10
-12.206520058256087
20
59.7825081792178
30
-0.001453519807146364
11
-9.8971189814975773
21
55.7825081792178
31
-0.001453519807146364
0
LINE
5
293
100
AcDbEntity
8
0
100
AcDbLine
10
5.2828810185024242
20
-58.61749182078222
30
-0.001453519807146364
11
9.9016831720194585
21
-58.61749182078222
31
-0.001453519807146364
0
LINE
5
294
100
AcDbEntity
8
0
100
AcDbLine
10
-17.425241614999383
20
-28.564051448721052
30
-0.001453519807146364
11
-19.73464269175793
21
-32.564051448721038
31
-0.001453519807146364
0
LINE
5
295
100
AcDbEntity
8
0
100
AcDbLine
10
12.211084248777947
20
-10.617491820782199
30
-0.001453519807146364
11
9.9016831720194407
21
-6.6174918207821953
31
-0.001453519807146364
0
LINE
5
296
100
AcDbEntity
8
0
100
AcDbLine
10
-19.73464269175793
20
-23.764051448721027
30
-0.001453519807146364
11
-17.425241614999436
21
-27.764051448721069
31
-0.001453519807146364
0
LINE
5
297
100
AcDbEntity
8
0
100
AcDbLine
10
-2.2452416149994372
20
-18.964051448721069
30
-0.001453519807146364
11
2.3735605385175793
21
-18.964051448721087
31
-0.001453519807146364
0
LINE
5
298
100
AcDbEntity
8
0
100
AcDbLine
10
-25.077118981497581
20
46.182508179217791
30
-0.001453519807146364
11
-27.386520058256089
21
42.182508179217805
31
-0.001453519807146364
0
LINE
5
299
100
AcDbEntity
8
0
100
AcDbLine
10
5.2828810185024242
20
-14.617491820782211
30
-0.001453519807146364
11
9.9016831720194585
21
-14.617491820782211
31
-0.001453519807146364
0
LINE
5
300
100
AcDbEntity
8
0
100
AcDbLine
10
-25.077118981497581
20
38.182508179217784
30
-0.001453519807146364
11
-20.458316827980546
21
38.182508179217784
31
-0.001453519807146364
0
LINE
5
301
100
AcDbEntity
8
0
100
AcDbLine
10
-19.73464269175793
20
-32.564051448721038
30
-0.001453519807146364
11
-17.425241614999436
21
-36.564051448721074
31
-0.001453519807146364
0
LINE
5
302
100
AcDbEntity
8
0
100
AcDbLine
10
-10.497038384723876
20
55.435948551278898
30
-0.001453519807146364
11
-12.806439461482366
21
59.435948551278919
31
-0.001453519807146364
0
LINE
5
303
100
AcDbEntity
8
0
100
AcDbLine
10
12.934758385000563
20
33.835948551278932
30
-0.001453519807146364
11
17.55356053851758
21
33.835948551278918
31
-0.001453519807146364
0
LINE
5
304
100
AcDbEntity
8
0
100
AcDbLine
10
-12.806439461482366
20
-37.364051448721092
30
-0.001453519807146364
11
-17.425241614999383
21
-37.364051448721057
31
-0.001453519807146364
0
LINE
5
305
100
AcDbEntity
8
0
100
AcDbLine
10
-2.2452416149993839
20
33.03594855127897
30
-0.001453519807146364
11
-4.5546426917579277
21
29.035948551278985
31
-0.001453519807146364
0
LINE
5
306
100
AcDbEntity
8
0
100
AcDbLine
10
4.6829616152761231
20
29.035948551278913
30
-0.001453519807146364
11
2.3735605385176326
21
33.035948551278935
31
-0.001453519807146364
0
LINE
5
307
100
AcDbEntity
8
0
100
AcDbLine
10
-20.458316827980546
20
-41.017491820782219
30
-0.001453519807146364
11
-18.148915751222052
21
-37.017491820782205
31
-0.001453519807146364
0
LINE
5
308
100
AcDbEntity
8
0
100
AcDbLine
10
12.934758385000617
20
-37.364051448721057
30
-0.001453519807146364
11
10.625357308242073
21
-41.364051448721042
31
-0.001453519807146364
0
LINE
5
309
100
AcDbEntity
8
0
100
AcDbLine
10
-20.458316827980546
20
29.382508179217794
30
-0.001453519807146364
11
-18.148915751222052
21
33.382508179217815
31
-0.001453519807146364
0
LINE
5
310
100
AcDbEntity
8
0
100
AcDbLine
10
-17.425241614999383
20
-37.364051448721057
30
-0.001453519807146364
11
-19.73464269175793
21
-41.364051448721042
31
-0.001453519807146364
0
LINE
5
311
100
AcDbEntity
8
0
100
AcDbLine
10
-27.386520058256089
20
33.382508179217794
30
-0.001453519807146364
11
-25.077118981497581
21
29.382508179217794
31
-0.001453519807146364
0
LINE
5
312
100
AcDbEntity
8
0
100
AcDbLine
10
-10.497038384723876
20
-41.364051448721114
30
-0.001453519807146364
11
-12.806439461482366
21
-37.364051448721092
31
-0.001453519807146364
0
LINE
5
313
100
AcDbEntity
8
0
100
AcDbLine
10
19.862961615276124
20
29.035948551278913
30
-0.001453519807146364
11
17.553560538517633
21
33.035948551278935
31
-0.001453519807146364
0
LINE
5
314
100
AcDbEntity
8
0
100
AcDbLine
10
-2.2452416149993839
20
-2.1640514487210449
30
-0.001453519807146364
11
-4.5546426917579277
21
-6.1640514487210307
31
-0.001453519807146364
0
LINE
5
315
100
AcDbEntity
8
0
100
AcDbLine
10
9.9016831720194585
20
29.382508179217794
30
-0.001453519807146364
11
12.211084248777947
21
33.382508179217815
31
-0.001453519807146364
0
LINE
5
316
100
AcDbEntity
8
0
100
AcDbLine
10
-12.206520058256087
20
-37.017491820782212
30
-0.001453519807146364
11
-9.8971189814975773
21
-41.017491820782219
31
-0.001453519807146364
0
LINE
5
317
100
AcDbEntity
8
0
100
AcDbLine
10
-5.2783168279805439
20
29.382508179217794
30
-0.001453519807146364
11
-2.9689157512220534
21
33.382508179217815
31
-0.001453519807146364
0
LINE
5
318
100
AcDbEntity
8
0
100
AcDbLine
10
2.9734799417439159
20
-37.017491820782212
30
-0.001453519807146364
11
5.2828810185024242
21
-41.017491820782219
31
-0.001453519807146364
0
LINE
5
319
100
AcDbEntity
8
0
100
AcDbLine
10
9.9016831720194585
20
-41.017491820782219
30
-0.001453519807146364
11
12.211084248777947
21
-37.017491820782205
31
-0.001453519807146364
0
LINE
5
320
100
AcDbEntity
8
0
100
AcDbLine
10
25.081683172019456
20
29.382508179217794
30
-0.001453519807146364
11
27.391084248777947
21
33.382508179217815
31
-0.001453519807146364
0
LINE
5
321
100
AcDbEntity
8
0
100
AcDbLine
10
-12.206520058256087
20
-1.8174918207822088
30
-0.001453519807146364
11
-9.8971189814975773
21
-5.8174918207822124
31
-0.001453519807146364
0
LINE
5
322
100
AcDbEntity
8
0
100
AcDbLine
10
18.153479941743914
20
-1.8174918207822088
30
-0.001453519807146364
11
20.462881018502422
21
-5.8174918207822124
31
-0.001453519807146364
0
LINE
5
323
100
AcDbEntity
8
0
100
AcDbLine
10
-2.2452416149993839
20
-37.364051448721057
30
-0.001453519807146364
11
-4.5546426917579277
21
-41.364051448721042
31
-0.001453519807146364
0
LINE
5
324
100
AcDbEntity
8
0
100
AcDbLine
10
19.862961615276124
20
-41.364051448721114
30
-0.001453519807146364
11
17.553560538517633
21
-37.364051448721092
31
-0.001453519807146364
0
LINE
5
325
100
AcDbEntity
8
0
100
AcDbLine
10
-12.206520058256087
20
33.382508179217794
30
-0.001453519807146364
11
-9.8971189814975773
21
29.382508179217794
31
-0.001453519807146364
0
LINE
5
326
100
AcDbEntity
8
0
100
AcDbLine
10
18.153479941743914
20
33.382508179217794
30
-0.001453519807146364
11
20.462881018502422
21
29.382508179217794
31
-0.001453519807146364
0
LINE
5
327
100
AcDbEntity
8
0
100
AcDbLine
10
18.153479941743914
20
-37.017491820782212
30
-0.001453519807146364
11
20.462881018502422
21
-41.017491820782219
31
-0.001453519807146364
0
LINE
5
328
100
AcDbEntity
8
0
100
AcDbLine
10
2.9734799417439159
20
33.382508179217794
30
-0.001453519807146364
11
5.2828810185024242
21
29.382508179217794
31
-0.001453519807146364
0
LINE
5
329
100
AcDbEntity
8
0
100
AcDbLine
10
25.081683172019456
20
-41.017491820782219
30
-0.001453519807146364
11
27.391084248777947
21
-37.017491820782205
31
-0.001453519807146364
0
LINE
5
330
100
AcDbEntity
8
0
100
AcDbLine
10
-10.497038384723876
20
29.035948551278913
30
-0.001453519807146364
11
-12.806439461482366
21
33.035948551278935
31
-0.001453519807146364
0
LINE
5
331
100
AcDbEntity
8
0
100
AcDbLine
10
-17.425241614999383
20
33.03594855127897
30
-0.001453519807146364
11
-19.73464269175793
21
29.035948551278985
31
-0.001453519807146364
0
LINE
5
332
100
AcDbEntity
8
0
100
AcDbLine
10
12.934758385000617
20
33.03594855127897
30
-0.001453519807146364
11
10.625357308242073
21
29.035948551278985
31
-0.001453519807146364
0
LINE
5
333
100
AcDbEntity
8
0
100
AcDbLine
10
2.9734799417439159
20
15.782508179217798
30
-0.001453519807146364
11
5.2828810185024242
21
11.782508179217794
31
-0.001453519807146364
0
LINE
5
334
100
AcDbEntity
8
0
100
AcDbLine
10
9.9016831720194585
20
46.98250817921781
30
-0.001453519807146364
11
12.211084248777947
21
50.98250817921781
31
-0.001453519807146364
0
LINE
5
335
100
AcDbEntity
8
0
100
AcDbLine
10
5.2828810185024242
20
19.7825081792178
30
-0.001453519807146364
11
2.9734799417439159
21
15.782508179217798
31
-0.001453519807146364
0
LINE
5
336
100
AcDbEntity
8
0
100
AcDbLine
10
12.934758385000617
20
6.635948551278954
30
-0.001453519807146364
11
10.625357308242073
21
2.6359485512789682
31
-0.001453519807146364
0
LINE
5
337
100
AcDbEntity
8
0
100
AcDbLine
10
-12.206520058256087
20
-19.417491820782217
30
-0.001453519807146364
11
-9.8971189814975773
21
-23.417491820782217
31
-0.001453519807146364
0
LINE
5
338
100
AcDbEntity
8
0
100
AcDbLine
10
2.3735605385176326
20
15.435948551278917
30
-0.001453519807146364
11
-2.2452416149993839
21
15.435948551278953
31
-0.001453519807146364
0
LINE
5
339
100
AcDbEntity
8
0
100
AcDbLine
10
20.462881018502422
20
-15.417491820782212
30
-0.001453519807146364
11
18.153479941743914
21
-19.417491820782217
31
-0.001453519807146364
0
LINE
5
340
100
AcDbEntity
8
0
100
AcDbLine
10
18.153479941743914
20
-19.417491820782217
30
-0.001453519807146364
11
20.462881018502422
21
-23.417491820782217
31
-0.001453519807146364
0
LINE
5
341
100
AcDbEntity
8
0
100
AcDbLine
10
2.9734799417439159
20
6.9825081792177901
30
-0.001453519807146364
11
5.2828810185024242
21
2.9825081792177865
31
-0.001453519807146364
0
LINE
5
342
100
AcDbEntity
8
0
100
AcDbLine
10
-2.9689157512220534
20
-54.617491820782213
30
-0.001453519807146364
11
-5.2783168279805617
21
-50.617491820782206
31
-0.001453519807146364
0
LINE
5
343
100
AcDbEntity
8
0
100
AcDbLine
10
-5.2783168279805439
20
-58.61749182078222
30
-0.001453519807146364
11
-2.9689157512220534
21
-54.617491820782213
31
-0.001453519807146364
0
LINE
5
344
100
AcDbEntity
8
0
100
AcDbLine
10
9.9016831720194585
20
-58.61749182078222
30
-0.001453519807146364
11
12.211084248777947
21
-54.617491820782213
31
-0.001453519807146364
0
LINE
5
345
100
AcDbEntity
8
0
100
AcDbLine
10
9.9016831720194407
20
2.1825081792178036
30
-0.001453519807146364
11
5.2828810185024242
21
2.1825081792177947
31
-0.001453519807146364
0
LINE
5
346
100
AcDbEntity
8
0
100
AcDbLine
10
-9.8971189814975773
20
19.7825081792178
30
-0.001453519807146364
11
-12.206520058256087
21
15.782508179217798
31
-0.001453519807146364
0
LINE
5
347
100
AcDbEntity
8
0
100
AcDbLine
10
-9.8971189814975773
20
-50.61749182078222
30
-0.001453519807146364
11
-12.206520058256087
21
-54.61749182078222
31
-0.001453519807146364
0
LINE
5
348
100
AcDbEntity
8
0
100
AcDbLine
10
5.2828810185024242
20
11.782508179217794
30
-0.001453519807146364
11
9.9016831720194585
21
11.782508179217794
31
-0.001453519807146364
0
LINE
5
349
100
AcDbEntity
8
0
100
AcDbLine
10
-5.2783168279805439
20
-41.017491820782219
30
-0.001453519807146364
11
-2.9689157512220534
21
-37.017491820782205
31
-0.001453519807146364
0
LINE
5
350
100
AcDbEntity
8
0
100
AcDbLine
10
12.211084248777947
20
-19.417491820782196
30
-0.001453519807146364
11
9.9016831720194407
21
-15.417491820782194
31
-0.001453519807146364
0
LINE
5
351
100
AcDbEntity
8
0
100
AcDbLine
10
-2.9689157512220534
20
-19.417491820782196
30
-0.001453519807146364
11
-5.2783168279805617
21
-15.417491820782194
31
-0.001453519807146364
0
LINE
5
352
100
AcDbEntity
8
0
100
AcDbLine
10
12.211084248777947
20
50.98250817921781
30
-0.001453519807146364
11
9.9016831720194407
21
54.982508179217817
31
-0.001453519807146364
0
LINE
5
353
100
AcDbEntity
8
0
100
AcDbLine
10
2.9734799417439159
20
-19.417491820782217
30
-0.001453519807146364
11
5.2828810185024242
21
-23.417491820782217
31
-0.001453519807146364
0
LINE
5
354
100
AcDbEntity
8
0
100
AcDbLine
10
5.2828810185024242
20
-50.61749182078222
30
-0.001453519807146364
11
2.9734799417439159
21
-54.61749182078222
31
-0.001453519807146364
0
LINE
5
355
100
AcDbEntity
8
0
100
AcDbLine
10
4.6829616152761231
20
-41.364051448721114
30
-0.001453519807146364
11
2.3735605385176326
21
-37.364051448721092
31
-0.001453519807146364
0
LINE
5
356
100
AcDbEntity
8
0
100
AcDbLine
10
-2.2452416149994372
20
-1.3640514487210709
30
-0.001453519807146364
11
2.3735605385175793
21
-1.3640514487210886
31
-0.001453519807146364
0
LINE
5
357
100
AcDbEntity
8
0
100
AcDbLine
10
-9.8971189814975773
20
54.982508179217817
30
-0.001453519807146364
11
-12.206520058256087
21
50.982508179217795
31
-0.001453519807146364
0
LINE
5
358
100
AcDbEntity
8
0
100
AcDbLine
10
12.934758385000563
20
7.4359485512789281
30
-0.001453519807146364
11
17.55356053851758
21
7.4359485512789103
31
-0.001453519807146364
0
LINE
5
359
100
AcDbEntity
8
0
100
AcDbLine
10
9.9016831720194407
20
10.982508179217803
30
-0.001453519807146364
11
5.2828810185024242
21
10.982508179217794
31
-0.001453519807146364
0
LINE
5
360
100
AcDbEntity
8
0
100
AcDbLine
10
-17.425241614999436
20
-18.964051448721069
30
-0.001453519807146364
11
-12.80643946148242
21
-18.964051448721087
31
-0.001453519807146364
0
LINE
5
361
100
AcDbEntity
8
0
100
AcDbLine
10
9.9016831720194585
20
2.9825081792177865
30
-0.001453519807146364
11
12.211084248777947
21
6.982508179217799
31
-0.001453519807146364
0
LINE
5
362
100
AcDbEntity
8
0
100
AcDbLine
10
5.2828810185024242
20
54.982508179217817
30
-0.001453519807146364
11
2.9734799417439159
21
50.982508179217795
31
-0.001453519807146364
0
LINE
5
363
100
AcDbEntity
8
0
100
AcDbLine
10
12.211084248777947
20
15.782508179217798
30
-0.001453519807146364
11
9.9016831720194407
21
19.7825081792178
31
-0.001453519807146364
0
LINE
5
364
100
AcDbEntity
8
0
100
AcDbLine
10
-19.73464269175793
20
-6.1640514487210307
30
-0.001453519807146364
11
-17.425241614999436
21
-10.16405144872107
31
-0.001453519807146364
0
LINE
5
365
100
AcDbEntity
8
0
100
AcDbLine
10
-27.386520058256089
20
-37.017491820782212
30
-0.001453519807146364
11
-25.077118981497581
21
-41.017491820782219
31
-0.001453519807146364
0
LINE
5
366
100
AcDbEntity
8
0
100
AcDbLine
10
10.625357308242073
20
11.435948551278967
30
-0.001453519807146364
11
12.934758385000563
21
7.4359485512789281
31
-0.001453519807146364
0
LINE
5
367
100
AcDbEntity
8
0
100
AcDbLine
10
-2.9689157512220534
20
15.782508179217798
30
-0.001453519807146364
11
-5.2783168279805617
21
19.7825081792178
31
-0.001453519807146364
0
LINE
5
368
100
AcDbEntity
8
0
100
AcDbLine
10
-5.2783168279805439
20
46.98250817921781
30
-0.001453519807146364
11
-2.9689157512220534
21
50.98250817921781
31
-0.001453519807146364
0
LINE
5
369
100
AcDbEntity
8
0
100
AcDbLine
10
12.211084248777947
20
6.982508179217799
30
-0.001453519807146364
11
9.9016831720194407
21
10.982508179217803
31
-0.001453519807146364
0
LINE
5
370
100
AcDbEntity
8
0
100
AcDbLine
10
17.553560538517633
20
6.6359485512789185
30
-0.001453519807146364
11
12.934758385000617
21
6.635948551278954
31
-0.001453519807146364
0
LINE
5
371
100
AcDbEntity
8
0
100
AcDbLine
10
2.3735605385176326
20
6.6359485512789185
30
-0.001453519807146364
11
-2.2452416149993839
21
6.635948551278954
31
-0.001453519807146364
0
LINE
5
372
100
AcDbEntity
8
0
100
AcDbLine
10
-12.206520058256087
20
-10.617491820782208
30
-0.001453519807146364
11
-9.8971189814975773
21
-14.617491820782211
31
-0.001453519807146364
0
LINE
5
373
100
AcDbEntity
8
0
100
AcDbLine
10
12.934758385000617
20
15.435948551278953
30
-0.001453519807146364
11
10.625357308242073
21
11.435948551278967
31
-0.001453519807146364
0
LINE
5
374
100
AcDbEntity
8
0
100
AcDbLine
10
-20.458316827980546
20
-23.417491820782217
30
-0.001453519807146364
11
-18.148915751222052
21
-19.417491820782196
31
-0.001453519807146364
0
LINE
5
375
100
AcDbEntity
8
0
100
AcDbLine
10
-9.8971189814975773
20
-6.6174918207822042
30
-0.001453519807146364
11
-12.206520058256087
21
-10.617491820782208
31
-0.001453519807146364
0
LINE
5
376
100
AcDbEntity
8
0
100
AcDbLine
10
17.553560538517633
20
-2.1640514487210805
30
-0.001453519807146364
11
12.934758385000617
21
-2.1640514487210449
31
-0.001453519807146364
0
LINE
5
377
100
AcDbEntity
8
0
100
AcDbLine
10
-17.425241614999436
20
33.835948551278932
30
-0.001453519807146364
11
-12.80643946148242
21
33.835948551278918
31
-0.001453519807146364
0
LINE
5
378
100
AcDbEntity
8
0
100
AcDbLine
10
-17.425241614999383
20
-10.964051448721044
30
-0.001453519807146364
11
-19.73464269175793
21
-14.96405144872103
31
-0.001453519807146364
0
LINE
5
379
100
AcDbEntity
8
0
100
AcDbLine
10
-12.806439461482366
20
24.235948551278923
30
-0.001453519807146364
11
-17.425241614999383
21
24.235948551278959
31
-0.001453519807146364
0
LINE
5
380
100
AcDbEntity
8
0
100
AcDbLine
10
-5.2783168279805617
20
-50.617491820782206
30
-0.001453519807146364
11
-9.8971189814975773
21
-50.61749182078222
31
-0.001453519807146364
0
LINE
5
381
100
AcDbEntity
8
0
100
AcDbLine
10
9.9016831720194585
20
20.582508179217804
30
-0.001453519807146364
11
12.211084248777947
21
24.582508179217804
31
-0.001453519807146364
0
LINE
5
382
100
AcDbEntity
8
0
100
AcDbLine
10
12.211084248777947
20
24.582508179217804
30
-0.001453519807146364
11
9.9016831720194407
21
28.582508179217811
31
-0.001453519807146364
0
LINE
5
383
100
AcDbEntity
8
0
100
AcDbLine
10
-19.73464269175793
20
29.035948551278985
30
-0.001453519807146364
11
-17.425241614999436
21
25.035948551278928
31
-0.001453519807146364
0
LINE
5
384
100
AcDbEntity
8
0
100
AcDbLine
10
4.6829616152761231
20
2.6359485512788972
30
-0.001453519807146364
11
2.3735605385176326
21
6.6359485512789185
31
-0.001453519807146364
0
LINE
5
385
100
AcDbEntity
8
0
100
AcDbLine
10
9.9016831720194585
20
-23.417491820782217
30
-0.001453519807146364
11
12.211084248777947
21
-19.417491820782196
31
-0.001453519807146364
0
LINE
5
386
100
AcDbEntity
8
0
100
AcDbLine
10
12.934758385000563
20
16.235948551278938
30
-0.001453519807146364
11
17.55356053851758
21
16.235948551278916
31
-0.001453519807146364
0
LINE
5
387
100
AcDbEntity
8
0
100
AcDbLine
10
-5.2783168279805617
20
-41.817491820782202
30
-0.001453519807146364
11
-9.8971189814975773
21
-41.817491820782209
31
-0.001453519807146364
0
LINE
5
388
100
AcDbEntity
8
0
100
AcDbLine
10
12.934758385000563
20
-1.3640514487210709
30
-0.001453519807146364
11
17.55356053851758
21
-1.3640514487210886
31
-0.001453519807146364
0
LINE
5
389
100
AcDbEntity
8
0
100
AcDbLine
10
-12.806439461482366
20
33.035948551278935
30
-0.001453519807146364
11
-17.425241614999383
21
33.03594855127897
31
-0.001453519807146364
0
LINE
5
390
100
AcDbEntity
8
0
100
AcDbLine
10
2.3735605385175793
20
7.4359485512789103
30
-0.001453519807146364
11
4.6829616152761231
21
11.435948551278896
31
-0.001453519807146364
0
LINE
5
391
100
AcDbEntity
8
0
100
AcDbLine
10
-12.806439461482366
20
-10.964051448721079
30
-0.001453519807146364
11
-17.425241614999383
21
-10.964051448721044
31
-0.001453519807146364
0
LINE
5
392
100
AcDbEntity
8
0
100
AcDbLine
10
2.3735605385176326
20
-2.1640514487210805
30
-0.001453519807146364
11
-2.2452416149993839
21
-2.1640514487210449
31
-0.001453519807146364
0
LINE
5
393
100
AcDbEntity
8
0
100
AcDbLine
10
-2.2452416149993839
20
24.235948551278959
30
-0.001453519807146364
11
-4.5546426917579277
21
20.235948551278973
31
-0.001453519807146364
0
LINE
5
394
100
AcDbEntity
8
0
100
AcDbLine
10
-17.425241614999436
20
-54.164051448721075
30
-0.001453519807146364
11
-12.80643946148242
21
-54.164051448721089
31
-0.001453519807146364
0
LINE
5
395
100
AcDbEntity
8
0
100
AcDbLine
10
12.211084248777947
20
-54.617491820782213
30
-0.001453519807146364
11
9.9016831720194407
21
-50.617491820782206
31
-0.001453519807146364
0
LINE
5
396
100
AcDbEntity
8
0
100
AcDbLine
10
-12.206520058256087
20
24.58250817921779
30
-0.001453519807146364
11
-9.8971189814975773
21
20.582508179217804
31
-0.001453519807146364
0
LINE
5
397
100
AcDbEntity
8
0
100
AcDbLine
10
-9.8971189814975773
20
-49.817491820782216
30
-0.001453519807146364
11
-5.2783168279805439
21
-49.817491820782216
31
-0.001453519807146364
0
LINE
5
398
100
AcDbEntity
8
0
100
AcDbLine
10
-17.425241614999436
20
16.235948551278938
30
-0.001453519807146364
11
-12.80643946148242
21
16.235948551278916
31
-0.001453519807146364
0
LINE
5
399
100
AcDbEntity
8
0
100
AcDbLine
10
-18.148915751222052
20
-10.617491820782199
30
-0.001453519807146364
11
-20.458316827980564
21
-6.6174918207821953
31
-0.001453519807146364
0
LINE
5
400
100
AcDbEntity
8
0
100
AcDbLine
10
-12.80643946148242
20
-18.964051448721087
30
-0.001453519807146364
11
-10.497038384723876
21
-14.964051448721101
31
-0.001453519807146364
0
LINE
5
401
100
AcDbEntity
8
0
100
AcDbLine
10
10.625357308242073
20
2.6359485512789682
30
-0.001453519807146364
11
12.934758385000563
21
-1.3640514487210709
31
-0.001453519807146364
0
LINE
5
402
100
AcDbEntity
8
0
100
AcDbLine
10
-17.425241614999436
20
-45.364051448721085
30
-0.001453519807146364
11
-12.80643946148242
21
-45.364051448721099
31
-0.001453519807146364
0
LINE
5
403
100
AcDbEntity
8
0
100
AcDbLine
10
-19.73464269175793
20
-14.96405144872103
30
-0.001453519807146364
11
-17.425241614999436
21
-18.964051448721069
31
-0.001453519807146364
0
LINE
5
404
100
AcDbEntity
8
0
100
AcDbLine
10
-17.425241614999383
20
-46.164051448721047
30
-0.001453519807146364
11
-19.73464269175793
21
-50.164051448721033
31
-0.001453519807146364
0
LINE
5
405
100
AcDbEntity
8
0
100
AcDbLine
10
10.625357308242073
20
20.235948551278973
30
-0.001453519807146364
11
12.934758385000563
21
16.235948551278938
31
-0.001453519807146364
0
LINE
5
406
100
AcDbEntity
8
0
100
AcDbLine
10
-17.425241614999383
20
24.235948551278959
30
-0.001453519807146364
11
-19.73464269175793
21
20.235948551278973
31
-0.001453519807146364
0
LINE
5
407
100
AcDbEntity
8
0
100
AcDbLine
10
-10.497038384723876
20
-14.964051448721101
30
-0.001453519807146364
11
-12.806439461482366
21
-10.964051448721079
31
-0.001453519807146364
0
LINE
5
408
100
AcDbEntity
8
0
100
AcDbLine
10
-9.8971189814975773
20
46.98250817921781
30
-0.001453519807146364
11
-5.2783168279805439
21
46.98250817921781
31
-0.001453519807146364
0
LINE
5
409
100
AcDbEntity
8
0
100
AcDbLine
10
2.3735605385175793
20
-1.3640514487210886
30
-0.001453519807146364
11
4.6829616152761231
21
2.6359485512788972
31
-0.001453519807146364
0
LINE
5
410
100
AcDbEntity
8
0
100
AcDbLine
10
-17.425241614999436
20
25.035948551278928
30
-0.001453519807146364
11
-12.80643946148242
21
25.035948551278928
31
-0.001453519807146364
0
LINE
5
411
100
AcDbEntity
8
0
100
AcDbLine
10
-2.2452416149994372
20
16.235948551278938
30
-0.001453519807146364
11
2.3735605385175793
21
16.235948551278916
31
-0.001453519807146364
0
LINE
5
412
100
AcDbEntity
8
0
100
AcDbLine
10
5.2828810185024242
20
2.9825081792177865
30
-0.001453519807146364
11
9.9016831720194585
21
2.9825081792177865
31
-0.001453519807146364
0
LINE
5
413
100
AcDbEntity
8
0
100
AcDbLine
10
5.2828810185024242
20
2.1825081792177947
30
-0.001453519807146364
11
2.9734799417439159
21
-1.8174918207822088
31
-0.001453519807146364
0
LINE
5
414
100
AcDbEntity
8
0
100
AcDbLine
10
-19.73464269175793
20
46.635948551278979
30
-0.001453519807146364
11
-17.425241614999436
21
42.635948551278943
31
-0.001453519807146364
0
LINE
5
415
100
AcDbEntity
8
0
100
AcDbLine
10
-17.425241614999436
20
-10.16405144872107
30
-0.001453519807146364
11
-12.80643946148242
21
-10.164051448721088
31
-0.001453519807146364
0
LINE
5
416
100
AcDbEntity
8
0
100
AcDbLine
10
9.9016831720194585
20
11.782508179217794
30
-0.001453519807146364
11
12.211084248777947
21
15.782508179217798
31
-0.001453519807146364
0
LINE
5
417
100
AcDbEntity
8
0
100
AcDbLine
10
17.553560538517633
20
15.435948551278917
30
-0.001453519807146364
11
12.934758385000617
21
15.435948551278953
31
-0.001453519807146364
0
LINE
5
418
100
AcDbEntity
8
0
100
AcDbLine
10
-20.458316827980546
20
-14.617491820782211
30
-0.001453519807146364
11
-18.148915751222052
21
-10.617491820782199
31
-0.001453519807146364
0
LINE
5
419
100
AcDbEntity
8
0
100
AcDbLine
10
5.2828810185024242
20
29.382508179217794
30
-0.001453519807146364
11
9.9016831720194585
21
29.382508179217794
31
-0.001453519807146364
0
LINE
5
420
100
AcDbEntity
8
0
100
AcDbLine
10
4.6829616152761231
20
11.435948551278896
30
-0.001453519807146364
11
2.3735605385176326
21
15.435948551278917
31
-0.001453519807146364
0
LINE
5
421
100
AcDbEntity
8
0
100
AcDbLine
10
-12.80643946148242
20
-10.164051448721088
30
-0.001453519807146364
11
-10.497038384723876
21
-6.1640514487211018
31
-0.001453519807146364
0
LINE
5
422
100
AcDbEntity
8
0
100
AcDbLine
10
-19.73464269175793
20
20.235948551278973
30
-0.001453519807146364
11
-17.425241614999436
21
16.235948551278938
31
-0.001453519807146364
0
LINE
5
423
100
AcDbEntity
8
0
100
AcDbLine
10
-5.2783168279805617
20
19.7825081792178
30
-0.001453519807146364
11
-9.8971189814975773
21
19.7825081792178
31
-0.001453519807146364
0
LINE
5
424
100
AcDbEntity
8
0
100
AcDbLine
10
-12.80643946148242
20
42.635948551278922
30
-0.001453519807146364
11
-10.497038384723876
21
46.635948551278908
31
-0.001453519807146364
0
LINE
5
425
100
AcDbEntity
8
0
100
AcDbLine
10
12.211084248777947
20
-1.8174918207822
30
-0.001453519807146364
11
9.9016831720194407
21
2.1825081792178036
31
-0.001453519807146364
0
LINE
5
426
100
AcDbEntity
8
0
100
AcDbLine
10
-4.5546426917579277
20
20.235948551278973
30
-0.001453519807146364
11
-2.2452416149994372
21
16.235948551278938
31
-0.001453519807146364
0
LINE
5
427
100
AcDbEntity
8
0
100
AcDbLine
10
-12.80643946148242
20
25.035948551278928
30
-0.001453519807146364
11
-10.497038384723876
21
29.035948551278913
31
-0.001453519807146364
0
LINE
5
428
100
AcDbEntity
8
0
100
AcDbLine
10
12.934758385000617
20
24.235948551278959
30
-0.001453519807146364
11
10.625357308242073
21
20.235948551278973
31
-0.001453519807146364
0
LINE
5
429
100
AcDbEntity
8
0
100
AcDbLine
10
-12.80643946148242
20
16.235948551278916
30
-0.001453519807146364
11
-10.497038384723876
21
20.235948551278902
31
-0.001453519807146364
0
LINE
5
430
100
AcDbEntity
8
0
100
AcDbLine
10
2.3735605385176326
20
24.235948551278923
30
-0.001453519807146364
11
-2.2452416149993839
21
24.235948551278959
31
-0.001453519807146364
0
LINE
5
431
100
AcDbEntity
8
0
100
AcDbLine
10
-9.8971189814975773
20
28.582508179217811
30
-0.001453519807146364
11
-12.206520058256087
21
24.58250817921779
31
-0.001453519807146364
0
LINE
5
432
100
AcDbEntity
8
0
100
AcDbLine
10
20.462881018502422
20
29.382508179217794
30
-0.001453519807146364
11
25.081683172019456
21
29.382508179217794
31
-0.001453519807146364
0
LINE
5
433
100
AcDbEntity
8
0
100
AcDbLine
10
-10.497038384723876
20
20.235948551278902
30
-0.001453519807146364
11
-12.806439461482366
21
24.235948551278923
31
-0.001453519807146364
0
LINE
5
434
100
AcDbEntity
8
0
100
AcDbLine
10
2.3735605385175793
20
25.035948551278928
30
-0.001453519807146364
11
4.6829616152761231
21
29.035948551278913
31
-0.001453519807146364
0
LINE
5
435
100
AcDbEntity
8
0
100
AcDbLine
10
-4.5546426917579277
20
46.635948551278979
30
-0.001453519807146364
11
-2.2452416149994372
21
42.635948551278943
31
-0.001453519807146364
0
LINE
5
436
100
AcDbEntity
8
0
100
AcDbLine
10
-2.2452416149993839
20
50.635948551278965
30
-0.001453519807146364
11
-4.5546426917579277
21
46.635948551278979
31
-0.001453519807146364
0
LINE
5
437
100
AcDbEntity
8
0
100
AcDbLine
10
-18.148915751222052
20
-45.817491820782202
30
-0.001453519807146364
11
-20.458316827980564
21
-41.817491820782202
31
-0.001453519807146364
0
LINE
5
438
100
AcDbEntity
8
0
100
AcDbLine
10
19.862961615276124
20
20.235948551278902
30
-0.001453519807146364
11
17.553560538517633
21
24.235948551278923
31
-0.001453519807146364
0
LINE
5
439
100
AcDbEntity
8
0
100
AcDbLine
10
25.081683172019439
20
2.1825081792178036
30
-0.001453519807146364
11
20.462881018502422
21
2.1825081792177947
31
-0.001453519807146364
0
LINE
5
440
100
AcDbEntity
8
0
100
AcDbLine
10
-2.2452416149994372
20
7.4359485512789281
30
-0.001453519807146364
11
2.3735605385175793
21
7.4359485512789103
31
-0.001453519807146364
0
LINE
5
441
100
AcDbEntity
8
0
100
AcDbLine
10
5.2828810185024242
20
10.982508179217794
30
-0.001453519807146364
11
2.9734799417439159
21
6.9825081792177901
31
-0.001453519807146364
0
LINE
5
442
100
AcDbEntity
8
0
100
AcDbLine
10
-20.458316827980546
20
-49.817491820782216
30
-0.001453519807146364
11
-18.148915751222052
21
-45.817491820782202
31
-0.001453519807146364
0
LINE
5
443
100
AcDbEntity
8
0
100
AcDbLine
10
9.9016831720194407
20
28.582508179217811
30
-0.001453519807146364
11
5.2828810185024242
21
28.582508179217811
31
-0.001453519807146364
0
LINE
5
444
100
AcDbEntity
8
0
100
AcDbLine
10
-12.206520058256087
20
-54.61749182078222
30
-0.001453519807146364
11
-9.8971189814975773
21
-58.61749182078222
31
-0.001453519807146364
0
LINE
5
445
100
AcDbEntity
8
0
100
AcDbLine
10
-2.9689157512220534
20
50.98250817921781
30
-0.001453519807146364
11
-5.2783168279805617
21
54.982508179217817
31
-0.001453519807146364
0
LINE
5
446
100
AcDbEntity
8
0
100
AcDbLine
10
-25.077118981497581
20
-41.017491820782219
30
-0.001453519807146364
11
-20.458316827980546
21
-41.017491820782219
31
-0.001453519807146364
0
LINE
5
447
100
AcDbEntity
8
0
100
AcDbLine
10
5.2828810185024242
20
20.582508179217804
30
-0.001453519807146364
11
9.9016831720194585
21
20.582508179217804
31
-0.001453519807146364
0
LINE
5
448
100
AcDbEntity
8
0
100
AcDbLine
10
-2.2452416149993839
20
41.83594855127896
30
-0.001453519807146364
11
-4.5546426917579277
21
37.835948551278975
31
-0.001453519807146364
0
LINE
5
449
100
AcDbEntity
8
0
100
AcDbLine
10
2.9734799417439159
20
24.58250817921779
30
-0.001453519807146364
11
5.2828810185024242
21
20.582508179217804
31
-0.001453519807146364
0
LINE
5
450
100
AcDbEntity
8
0
100
AcDbLine
10
5.2828810185024242
20
28.582508179217811
30
-0.001453519807146364
11
2.9734799417439159
21
24.58250817921779
31
-0.001453519807146364
0
LINE
5
451
100
AcDbEntity
8
0
100
AcDbLine
10
-18.148915751222052
20
42.182508179217805
30
-0.001453519807146364
11
-20.458316827980564
21
46.182508179217805
31
-0.001453519807146364
0
LINE
5
452
100
AcDbEntity
8
0
100
AcDbLine
10
-10.497038384723876
20
46.635948551278908
30
-0.001453519807146364
11
-12.806439461482366
21
50.635948551278929
31
-0.001453519807146364
0
LINE
5
453
100
AcDbEntity
8
0
100
AcDbLine
10
2.9734799417439159
20
-1.8174918207822088
30
-0.001453519807146364
11
5.2828810185024242
21
-5.8174918207822124
31
-0.001453519807146364
0
LINE
5
454
100
AcDbEntity
8
0
100
AcDbLine
10
-27.386520058256089
20
-1.8174918207822088
30
-0.001453519807146364
11
-25.077118981497581
21
-5.8174918207822124
31
-0.001453519807146364
0
LINE
5
455
100
AcDbEntity
8
0
100
AcDbLine
10
12.934758385000617
20
-2.1640514487210449
30
-0.001453519807146364
11
10.625357308242073
21
-6.1640514487210307
31
-0.001453519807146364
0
LINE
5
456
100
AcDbEntity
8
0
100
AcDbLine
10
-20.458316827980546
20
-5.8174918207822124
30
-0.001453519807146364
11
-18.148915751222052
21
-1.8174918207822
31
-0.001453519807146364
0
LINE
5
457
100
AcDbEntity
8
0
100
AcDbLine
10
4.6829616152761231
20
-6.1640514487211018
30
-0.001453519807146364
11
2.3735605385176326
21
-2.1640514487210805
31
-0.001453519807146364
0
LINE
5
458
100
AcDbEntity
8
0
100
AcDbLine
10
-25.077118981497581
20
2.1825081792177947
30
-0.001453519807146364
11
-27.386520058256089
21
-1.8174918207822088
31
-0.001453519807146364
0
LINE
5
459
100
AcDbEntity
8
0
100
AcDbLine
10
-17.425241614999383
20
-2.1640514487210449
30
-0.001453519807146364
11
-19.73464269175793
21
-6.1640514487210307
31
-0.001453519807146364
0
LINE
5
460
100
AcDbEntity
8
0
100
AcDbLine
10
-5.2783168279805439
20
-5.8174918207822124
30
-0.001453519807146364
11
-2.9689157512220534
21
-1.8174918207822
31
-0.001453519807146364
0
LINE
5
461
100
AcDbEntity
8
0
100
AcDbLine
10
9.9016831720194585
20
-5.8174918207822124
30
-0.001453519807146364
11
12.211084248777947
21
-1.8174918207822
31
-0.001453519807146364
0
LINE
5
462
100
AcDbEntity
8
0
100
AcDbLine
10
-20.458316827980564
20
2.1825081792178036
30
-0.001453519807146364
11
-25.077118981497581
21
2.1825081792177947
31
-0.001453519807146364
0
LINE
5
463
100
AcDbEntity
8
0
100
AcDbLine
10
19.862961615276124
20
-6.1640514487211018
30
-0.001453519807146364
11
17.553560538517633
21
-2.1640514487210805
31
-0.001453519807146364
0
LINE
5
464
100
AcDbEntity
8
0
100
AcDbLine
10
25.081683172019456
20
-5.8174918207822124
30
-0.001453519807146364
11
27.391084248777947
21
-1.8174918207822
31
-0.001453519807146364
0
LINE
5
465
100
AcDbEntity
8
0
100
AcDbLine
10
-4.5546426917579277
20
11.435948551278967
30
-0.001453519807146364
11
-2.2452416149994372
21
7.4359485512789281
31
-0.001453519807146364
0
LINE
5
466
100
AcDbEntity
8
0
100
AcDbLine
10
-9.8971189814975773
20
2.1825081792177947
30
-0.001453519807146364
11
-12.206520058256087
21
-1.8174918207822088
31
-0.001453519807146364
0
LINE
5
467
100
AcDbEntity
8
0
100
AcDbLine
10
-17.425241614999436
20
7.4359485512789281
30
-0.001453519807146364
11
-12.80643946148242
21
7.4359485512789103
31
-0.001453519807146364
0
LINE
5
468
100
AcDbEntity
8
0
100
AcDbLine
10
-2.9689157512220534
20
6.982508179217799
30
-0.001453519807146364
11
-5.2783168279805617
21
10.982508179217803
31
-0.001453519807146364
0
LINE
5
469
100
AcDbEntity
8
0
100
AcDbLine
10
-17.425241614999383
20
15.435948551278953
30
-0.001453519807146364
11
-19.73464269175793
21
11.435948551278967
31
-0.001453519807146364
0
LINE
5
470
100
AcDbEntity
8
0
100
AcDbLine
10
-12.80643946148242
20
-1.3640514487210886
30
-0.001453519807146364
11
-10.497038384723876
21
2.6359485512788972
31
-0.001453519807146364
0
LINE
5
471
100
AcDbEntity
8
0
100
AcDbLine
10
-10.497038384723876
20
2.6359485512788972
30
-0.001453519807146364
11
-12.806439461482366
21
6.6359485512789185
31
-0.001453519807146364
0
LINE
5
472
100
AcDbEntity
8
0
100
AcDbLine
10
-2.2452416149993839
20
6.635948551278954
30
-0.001453519807146364
11
-4.5546426917579277
21
2.6359485512789682
31
-0.001453519807146364
0
LINE
5
473
100
AcDbEntity
8
0
100
AcDbLine
10
-12.806439461482366
20
15.435948551278917
30
-0.001453519807146364
11
-17.425241614999383
21
15.435948551278953
31
-0.001453519807146364
0
LINE
5
474
100
AcDbEntity
8
0
100
AcDbLine
10
-10.497038384723876
20
11.435948551278896
30
-0.001453519807146364
11
-12.806439461482366
21
15.435948551278917
31
-0.001453519807146364
0
LINE
5
475
100
AcDbEntity
8
0
100
AcDbLine
10
-9.8971189814975773
20
2.9825081792177865
30
-0.001453519807146364
11
-5.2783168279805439
21
2.9825081792177865
31
-0.001453519807146364
0
LINE
5
476
100
AcDbEntity
8
0
100
AcDbLine
10
-18.148915751222052
20
-1.8174918207822
30
-0.001453519807146364
11
-20.458316827980564
21
2.1825081792178036
31
-0.001453519807146364
0
LINE
5
477
100
AcDbEntity
8
0
100
AcDbLine
10
-5.2783168279805439
20
11.782508179217794
30
-0.001453519807146364
11
-2.9689157512220534
21
15.782508179217798
31
-0.001453519807146364
0
LINE
5
478
100
AcDbEntity
8
0
100
AcDbLine
10
-2.9689157512220534
20
-1.8174918207822
30
-0.001453519807146364
11
-5.2783168279805617
21
2.1825081792178036
31
-0.001453519807146364
0
LINE
5
479
100
AcDbEntity
8
0
100
AcDbLine
10
-5.2783168279805617
20
2.1825081792178036
30
-0.001453519807146364
11
-9.8971189814975773
21
2.1825081792177947
31
-0.001453519807146364
0
LINE
5
480
100
AcDbEntity
8
0
100
AcDbLine
10
-9.8971189814975773
20
10.982508179217794
30
-0.001453519807146364
11
-12.206520058256087
21
6.9825081792177901
31
-0.001453519807146364
0
LINE
5
481
100
AcDbEntity
8
0
100
AcDbLine
10
-5.2783168279805439
20
2.9825081792177865
30
-0.001453519807146364
11
-2.9689157512220534
21
6.982508179217799
31
-0.001453519807146364
0
LINE
5
482
100
AcDbEntity
8
0
100
AcDbLine
10
-5.2783168279805617
20
10.982508179217803
30
-0.001453519807146364
11
-9.8971189814975773
21
10.982508179217794
31
-0.001453519807146364
0
LINE
5
483
100
AcDbEntity
8
0
100
AcDbLine
10
-9.8971189814975773
20
11.782508179217794
30
-0.001453519807146364
11
-5.2783168279805439
21
11.782508179217794
31
-0.001453519807146364
0
LINE
5
484
100
AcDbEntity
8
0
100
AcDbLine
10
-4.5546426917579277
20
2.6359485512789682
30
-0.001453519807146364
11
-2.2452416149994372
21
-1.3640514487210709
31
-0.001453519807146364
0
LINE
5
485
100
AcDbEntity
8
0
100
AcDbLine
10
-12.806439461482366
20
6.6359485512789185
30
-0.001453519807146364
11
-17.425241614999383
21
6.635948551278954
31
-0.001453519807146364
0
LINE
5
486
100
AcDbEntity
8
0
100
AcDbLine
10
-19.73464269175793
20
2.6359485512789682
30
-0.001453519807146364
11
-17.425241614999436
21
-1.3640514487210709
31
-0.001453519807146364
0
LINE
5
487
100
AcDbEntity
8
0
100
AcDbLine
10
-9.8971189814975773
20
-5.8174918207822124
30
-0.001453519807146364
11
-5.2783168279805439
21
-5.8174918207822124
31
-0.001453519807146364
0
LINE
5
488
100
AcDbEntity
8
0
100
AcDbLine
10
5.2828810185024242
20
-33.017491820782212
30
-0.001453519807146364
11
2.9734799417439159
21
-37.017491820782212
31
-0.001453519807146364
0
LINE
5
489
100
AcDbEntity
8
0
100
AcDbLine
10
25.081683172019439
20
46.182508179217805
30
-0.001453519807146364
11
20.462881018502422
21
46.182508179217791
31
-0.001453519807146364
0
LINE
5
490
100
AcDbEntity
8
0
100
AcDbLine
10
25.081683172019439
20
37.382508179217801
30
-0.001453519807146364
11
20.462881018502422
21
37.382508179217801
31
-0.001453519807146364
0
LINE
5
491
100
AcDbEntity
8
0
100
AcDbLine
10
12.211084248777947
20
-28.217491820782207
30
-0.001453519807146364
11
9.9016831720194407
21
-24.2174918207822
31
-0.001453519807146364
0
LINE
5
492
100
AcDbEntity
8
0
100
AcDbLine
10
5.2828810185024242
20
-32.217491820782215
30
-0.001453519807146364
11
9.9016831720194585
21
-32.217491820782215
31
-0.001453519807146364
0
LINE
5
493
100
AcDbEntity
8
0
100
AcDbLine
10
19.862961615276124
20
46.635948551278908
30
-0.001453519807146364
11
17.553560538517633
21
50.635948551278929
31
-0.001453519807146364
0
LINE
5
494
100
AcDbEntity
8
0
100
AcDbLine
10
17.553560538517633
20
-37.364051448721092
30
-0.001453519807146364
11
12.934758385000617
21
-37.364051448721057
31
-0.001453519807146364
0
LINE
5
495
100
AcDbEntity
8
0
100
AcDbLine
10
12.934758385000563
20
-27.764051448721069
30
-0.001453519807146364
11
17.55356053851758
21
-27.764051448721084
31
-0.001453519807146364
0
LINE
5
496
100
AcDbEntity
8
0
100
AcDbLine
10
17.553560538517633
20
41.835948551278925
30
-0.001453519807146364
11
12.934758385000617
21
41.83594855127896
31
-0.001453519807146364
0
LINE
5
497
100
AcDbEntity
8
0
100
AcDbLine
10
9.9016831720194407
20
-24.2174918207822
30
-0.001453519807146364
11
5.2828810185024242
21
-24.217491820782211
31
-0.001453519807146364
0
LINE
5
498
100
AcDbEntity
8
0
100
AcDbLine
10
9.9016831720194407
20
63.782508179217807
30
-0.001453519807146364
11
5.2828810185024242
21
63.782508179217807
31
-0.001453519807146364
0
LINE
5
499
100
AcDbEntity
8
0
100
AcDbLine
10
19.862961615276124
20
37.835948551278904
30
-0.001453519807146364
11
17.553560538517633
21
41.835948551278925
31
-0.001453519807146364
0
LINE
5
500
100
AcDbEntity
8
0
100
AcDbLine
10
17.553560538517633
20
-28.564051448721088
30
-0.001453519807146364
11
12.934758385000617
21
-28.564051448721052
31
-0.001453519807146364
0
LINE
5
501
100
AcDbEntity
8
0
100
AcDbLine
10
-2.9689157512220534
20
24.582508179217804
30
-0.001453519807146364
11
-5.2783168279805617
21
28.582508179217811
31
-0.001453519807146364
0
LINE
5
502
100
AcDbEntity
8
0
100
AcDbLine
10
18.153479941743914
20
-10.617491820782208
30
-0.001453519807146364
11
20.462881018502422
21
-14.617491820782211
31
-0.001453519807146364
0
LINE
5
503
100
AcDbEntity
8
0
100
AcDbLine
10
4.6829616152761231
20
46.635948551278908
30
-0.001453519807146364
11
2.3735605385176326
21
50.635948551278929
31
-0.001453519807146364
0
LINE
5
504
100
AcDbEntity
8
0
100
AcDbLine
10
9.9016831720194585
20
-32.217491820782215
30
-0.001453519807146364
11
12.211084248777947
21
-28.217491820782207
31
-0.001453519807146364
0
LINE
5
505
100
AcDbEntity
8
0
100
AcDbLine
10
12.211084248777947
20
-37.017491820782205
30
-0.001453519807146364
11
9.9016831720194407
21
-33.017491820782197
31
-0.001453519807146364
0
LINE
5
506
100
AcDbEntity
8
0
100
AcDbLine
10
-9.8971189814975773
20
55.7825081792178
30
-0.001453519807146364
11
-5.2783168279805439
21
55.7825081792178
31
-0.001453519807146364
0
LINE
5
507
100
AcDbEntity
8
0
100
AcDbLine
10
12.934758385000617
20
-19.764051448721041
30
-0.001453519807146364
11
10.625357308242073
21
-23.764051448721027
31
-0.001453519807146364
0
LINE
5
508
100
AcDbEntity
8
0
100
AcDbLine
10
4.6829616152761231
20
-32.564051448721109
30
-0.001453519807146364
11
2.3735605385176326
21
-28.564051448721088
31
-0.001453519807146364
0
LINE
5
509
100
AcDbEntity
8
0
100
AcDbLine
10
17.55356053851758
20
-10.164051448721088
30
-0.001453519807146364
11
19.862961615276124
21
-6.1640514487211018
31
-0.001453519807146364
0
LINE
5
510
100
AcDbEntity
8
0
100
AcDbLine
10
20.462881018502422
20
38.182508179217784
30
-0.001453519807146364
11
25.081683172019456
21
38.182508179217784
31
-0.001453519807146364
0
LINE
5
511
100
AcDbEntity
8
0
100
AcDbLine
10
17.55356053851758
20
-18.964051448721087
30
-0.001453519807146364
11
19.862961615276124
21
-14.964051448721101
31
-0.001453519807146364
0
LINE
5
512
100
AcDbEntity
8
0
100
AcDbLine
10
20.462881018502422
20
-6.6174918207822042
30
-0.001453519807146364
11
18.153479941743914
21
-10.617491820782208
31
-0.001453519807146364
0
LINE
5
513
100
AcDbEntity
8
0
100
AcDbLine
10
-5.2783168279805439
20
55.7825081792178
30
-0.001453519807146364
11
-2.9689157512220534
21
59.782508179217821
31
-0.001453519807146364
0
LINE
5
514
100
AcDbEntity
8
0
100
AcDbLine
10
2.9734799417439159
20
-28.217491820782215
30
-0.001453519807146364
11
5.2828810185024242
21
-32.217491820782215
31
-0.001453519807146364
0
LINE
5
515
100
AcDbEntity
8
0
100
AcDbLine
10
2.3735605385175793
20
-36.564051448721095
30
-0.001453519807146364
11
4.6829616152761231
21
-32.564051448721109
31
-0.001453519807146364
0
LINE
5
516
100
AcDbEntity
8
0
100
AcDbLine
10
-5.2783168279805617
20
54.982508179217817
30
-0.001453519807146364
11
-9.8971189814975773
21
54.982508179217817
31
-0.001453519807146364
0
LINE
5
517
100
AcDbEntity
8
0
100
AcDbLine
10
12.934758385000563
20
51.435948551278933
30
-0.001453519807146364
11
17.55356053851758
21
51.435948551278912
31
-0.001453519807146364
0
LINE
5
518
100
AcDbEntity
8
0
100
AcDbLine
10
9.9016831720194407
20
-33.017491820782197
30
-0.001453519807146364
11
5.2828810185024242
21
-33.017491820782212
31
-0.001453519807146364
0
LINE
5
519
100
AcDbEntity
8
0
100
AcDbLine
10
10.625357308242073
20
55.435948551278969
30
-0.001453519807146364
11
12.934758385000563
21
51.435948551278933
31
-0.001453519807146364
0
LINE
5
520
100
AcDbEntity
8
0
100
AcDbLine
10
17.553560538517633
20
-19.764051448721077
30
-0.001453519807146364
11
12.934758385000617
21
-19.764051448721041
31
-0.001453519807146364
0
LINE
5
521
100
AcDbEntity
8
0
100
AcDbLine
10
-2.2452416149994372
20
51.435948551278933
30
-0.001453519807146364
11
2.3735605385175793
21
51.435948551278912
31
-0.001453519807146364
0
LINE
5
522
100
AcDbEntity
8
0
100
AcDbLine
10
10.625357308242073
20
-23.764051448721027
30
-0.001453519807146364
11
12.934758385000563
21
-27.764051448721069
31
-0.001453519807146364
0
LINE
5
523
100
AcDbEntity
8
0
100
AcDbLine
10
2.3735605385175793
20
51.435948551278912
30
-0.001453519807146364
11
4.6829616152761231
21
55.435948551278898
31
-0.001453519807146364
0
LINE
5
524
100
AcDbEntity
8
0
100
AcDbLine
10
-25.077118981497581
20
-32.217491820782215
30
-0.001453519807146364
11
-20.458316827980546
21
-32.217491820782215
31
-0.001453519807146364
0
LINE
5
525
100
AcDbEntity
8
0
100
AcDbLine
10
-20.458316827980564
20
-33.017491820782197
30
-0.001453519807146364
11
-25.077118981497581
21
-33.017491820782212
31
-0.001453519807146364
0
LINE
5
526
100
AcDbEntity
8
0
100
AcDbLine
10
4.6829616152761231
20
-23.764051448721098
30
-0.001453519807146364
11
2.3735605385176326
21
-19.764051448721077
31
-0.001453519807146364
0
LINE
5
527
100
AcDbEntity
8
0
100
AcDbLine
10
-25.077118981497581
20
-33.017491820782212
30
-0.001453519807146364
11
-27.386520058256089
21
-37.017491820782212
31
-0.001453519807146364
0
LINE
5
528
100
AcDbEntity
8
0
100
AcDbLine
10
5.2828810185024242
20
-23.417491820782217
30
-0.001453519807146364
11
9.9016831720194585
21
-23.417491820782217
31
-0.001453519807146364
0
LINE
5
529
100
AcDbEntity
8
0
100
AcDbLine
10
9.9016831720194585
20
55.7825081792178
30
-0.001453519807146364
11
12.211084248777947
21
59.782508179217821
31
-0.001453519807146364
0
LINE
5
530
100
AcDbEntity
8
0
100
AcDbLine
10
17.55356053851758
20
51.435948551278912
30
-0.001453519807146364
11
19.862961615276124
21
55.435948551278898
31
-0.001453519807146364
0
LINE
5
531
100
AcDbEntity
8
0
100
AcDbLine
10
-27.386520058256089
20
-28.217491820782215
30
-0.001453519807146364
11
-25.077118981497581
21
-32.217491820782215
31
-0.001453519807146364
0
LINE
5
532
100
AcDbEntity
8
0
100
AcDbLine
10
10.625357308242073
20
-32.564051448721038
30
-0.001453519807146364
11
12.934758385000563
21
-36.564051448721074
31
-0.001453519807146364
0
LINE
5
533
100
AcDbEntity
8
0
100
AcDbLine
10
4.6829616152761231
20
55.435948551278898
30
-0.001453519807146364
11
2.3735605385176326
21
59.435948551278919
31
-0.001453519807146364
0
LINE
5
534
100
AcDbEntity
8
0
100
AcDbLine
10
2.3735605385175793
20
33.835948551278918
30
-0.001453519807146364
11
4.6829616152761231
21
37.835948551278904
31
-0.001453519807146364
0
LINE
5
535
100
AcDbEntity
8
0
100
AcDbLine
10
2.9734799417439159
20
59.7825081792178
30
-0.001453519807146364
11
5.2828810185024242
21
55.7825081792178
31
-0.001453519807146364
0
LINE
5
536
100
AcDbEntity
8
0
100
AcDbLine
10
12.934758385000617
20
-28.564051448721052
30
-0.001453519807146364
11
10.625357308242073
21
-32.564051448721038
31
-0.001453519807146364
0
LINE
5
537
100
AcDbEntity
8
0
100
AcDbLine
10
-5.2783168279805617
20
63.782508179217807
30
-0.001453519807146364
11
-9.8971189814975773
21
63.782508179217807
31
-0.001453519807146364
0
LINE
5
538
100
AcDbEntity
8
0
100
AcDbLine
10
5.2828810185024242
20
-24.217491820782211
30
-0.001453519807146364
11
2.9734799417439159
21
-28.217491820782215
31
-0.001453519807146364
0
LINE
5
539
100
AcDbEntity
8
0
100
AcDbLine
10
2.3735605385175793
20
-27.764051448721084
30
-0.001453519807146364
11
4.6829616152761231
21
-23.764051448721098
31
-0.001453519807146364
0
LINE
5
540
100
AcDbEntity
8
0
100
AcDbLine
10
12.934758385000617
20
59.435948551278955
30
-0.001453519807146364
11
10.625357308242073
21
55.435948551278969
31
-0.001453519807146364
0
LINE
5
541
100
AcDbEntity
8
0
100
AcDbLine
10
-2.2452416149994372
20
33.835948551278932
30
-0.001453519807146364
11
2.3735605385175793
21
33.835948551278918
31
-0.001453519807146364
0
LINE
5
542
100
AcDbEntity
8
0
100
AcDbLine
10
2.3735605385176326
20
59.435948551278919
30
-0.001453519807146364
11
-2.2452416149993839
21
59.435948551278955
31
-0.001453519807146364
0
LINE
5
543
100
AcDbEntity
8
0
100
AcDbLine
10
17.553560538517633
20
33.035948551278935
30
-0.001453519807146364
11
12.934758385000617
21
33.03594855127897
31
-0.001453519807146364
0
LINE
5
544
100
AcDbEntity
8
0
100
AcDbLine
10
9.9016831720194407
20
54.982508179217817
30
-0.001453519807146364
11
5.2828810185024242
21
54.982508179217817
31
-0.001453519807146364
0
LINE
5
545
100
AcDbEntity
8
0
100
AcDbLine
10
-5.2783168279805617
20
-15.417491820782194
30
-0.001453519807146364
11
-9.8971189814975773
21
-15.417491820782212
31
-0.001453519807146364
0
LINE
5
546
100
AcDbEntity
8
0
100
AcDbLine
10
5.2828810185024242
20
55.7825081792178
30
-0.001453519807146364
11
9.9016831720194585
21
55.7825081792178
31
-0.001453519807146364
0
LINE
5
547
100
AcDbEntity
8
0
100
AcDbLine
10
12.934758385000563
20
-10.16405144872107
30
-0.001453519807146364
11
17.55356053851758
21
-10.164051448721088
31
-0.001453519807146364
0
LINE
5
548
100
AcDbEntity
8
0
100
AcDbLine
10
20.462881018502422
20
-23.417491820782217
30
-0.001453519807146364
11
25.081683172019456
21
-23.417491820782217
31
-0.001453519807146364
0
LINE
5
549
100
AcDbEntity
8
0
100
AcDbLine
10
-25.077118981497581
20
-24.217491820782211
30
-0.001453519807146364
11
-27.386520058256089
21
-28.217491820782215
31
-0.001453519807146364
0
LINE
5
550
100
AcDbEntity
8
0
100
AcDbLine
10
5.2828810185024242
20
63.782508179217807
30
-0.001453519807146364
11
2.9734799417439159
21
59.7825081792178
31
-0.001453519807146364
0
LINE
5
551
100
AcDbEntity
8
0
100
AcDbLine
10
-20.458316827980564
20
-24.2174918207822
30
-0.001453519807146364
11
-25.077118981497581
21
-24.217491820782211
31
-0.001453519807146364
0
LINE
5
552
100
AcDbEntity
8
0
100
AcDbLine
10
12.934758385000563
20
-36.564051448721074
30
-0.001453519807146364
11
17.55356053851758
21
-36.564051448721095
31
-0.001453519807146364
0
LINE
5
553
100
AcDbEntity
8
0
100
AcDbLine
10
2.3735605385176326
20
41.835948551278925
30
-0.001453519807146364
11
-2.2452416149993839
21
41.83594855127896
31
-0.001453519807146364
0
LINE
5
554
100
AcDbEntity
8
0
100
AcDbLine
10
4.6829616152761231
20
37.835948551278904
30
-0.001453519807146364
11
2.3735605385176326
21
41.835948551278925
31
-0.001453519807146364
0
LINE
5
555
100
AcDbEntity
8
0
100
AcDbLine
10
9.9016831720194585
20
38.182508179217784
30
-0.001453519807146364
11
12.211084248777947
21
42.182508179217805
31
-0.001453519807146364
0
LINE
5
556
100
AcDbEntity
8
0
100
AcDbLine
10
19.862961615276124
20
55.435948551278898
30
-0.001453519807146364
11
17.553560538517633
21
59.435948551278919
31
-0.001453519807146364
0
LINE
5
557
100
AcDbEntity
8
0
100
AcDbLine
10
12.934758385000563
20
-18.964051448721069
30
-0.001453519807146364
11
17.55356053851758
21
-18.964051448721087
31
-0.001453519807146364
0
LINE
5
558
100
AcDbEntity
8
0
100
AcDbLine
10
17.553560538517633
20
-10.964051448721079
30
-0.001453519807146364
11
12.934758385000617
21
-10.964051448721044
31
-0.001453519807146364
0
LINE
5
559
100
AcDbEntity
8
0
100
AcDbLine
10
-25.077118981497581
20
-23.417491820782217
30
-0.001453519807146364
11
-20.458316827980546
21
-23.417491820782217
31
-0.001453519807146364
0
LINE
5
560
100
AcDbEntity
8
0
100
AcDbLine
10
17.553560538517633
20
59.435948551278919
30
-0.001453519807146364
11
12.934758385000617
21
59.435948551278955
31
-0.001453519807146364
0
LINE
5
561
100
AcDbEntity
8
0
100
AcDbLine
10
2.3735605385176326
20
50.635948551278929
30
-0.001453519807146364
11
-2.2452416149993839
21
50.635948551278965
31
-0.001453519807146364
0
LINE
5
562
100
AcDbEntity
8
0
100
AcDbLine
10
17.55356053851758
20
42.635948551278922
30
-0.001453519807146364
11
19.862961615276124
21
46.635948551278908
31
-0.001453519807146364
0
LINE
5
563
100
AcDbEntity
8
0
100
AcDbLine
10
10.625357308242073
20
46.635948551278979
30
-0.001453519807146364
11
12.934758385000563
21
42.635948551278943
31
-0.001453519807146364
0
LINE
5
564
100
AcDbEntity
8
0
100
AcDbLine
10
18.153479941743914
20
42.182508179217805
30
-0.001453519807146364
11
20.462881018502422
21
38.182508179217784
31
-0.001453519807146364
0
LINE
5
565
100
AcDbEntity
8
0
100
AcDbLine
10
19.862961615276124
20
-14.964051448721101
30
-0.001453519807146364
11
17.553560538517633
21
-10.964051448721079
31
-0.001453519807146364
0
LINE
5
566
100
AcDbEntity
8
0
100
AcDbLine
10
12.211084248777947
20
59.782508179217821
30
-0.001453519807146364
11
9.9016831720194407
21
63.782508179217807
31
-0.001453519807146364
0
LINE
5
567
100
AcDbEntity
8
0
100
AcDbLine
10
27.391084248777947
20
-28.217491820782207
30
-0.001453519807146364
11
25.081683172019439
21
-24.2174918207822
31
-0.001453519807146364
0
LINE
5
568
100
AcDbEntity
8
0
100
AcDbLine
10
-2.2452416149994372
20
42.635948551278943
30
-0.001453519807146364
11
2.3735605385175793
21
42.635948551278922
31
-0.001453519807146364
0
LINE
5
569
100
AcDbEntity
8
0
100
AcDbLine
10
20.462881018502422
20
46.182508179217791
30
-0.001453519807146364
11
18.153479941743914
21
42.182508179217805
31
-0.001453519807146364
0
LINE
5
570
100
AcDbEntity
8
0
100
AcDbLine
10
25.081683172019439
20
-33.017491820782197
30
-0.001453519807146364
11
20.462881018502422
21
-33.017491820782212
31
-0.001453519807146364
0
LINE
5
571
100
AcDbEntity
8
0
100
AcDbLine
10
17.55356053851758
20
33.835948551278918
30
-0.001453519807146364
11
19.862961615276124
21
37.835948551278904
31
-0.001453519807146364
0
LINE
5
572
100
AcDbEntity
8
0
100
AcDbLine
10
27.391084248777947
20
-37.017491820782205
30
-0.001453519807146364
11
25.081683172019439
21
-33.017491820782197
31
-0.001453519807146364
0
LINE
5
573
100
AcDbEntity
8
0
100
AcDbLine
10
27.391084248777947
20
42.182508179217805
30
-0.001453519807146364
11
25.081683172019439
21
46.182508179217805
31
-0.001453519807146364
0
LINE
5
574
100
AcDbEntity
8
0
100
AcDbLine
10
25.081683172019456
20
-14.617491820782211
30
-0.001453519807146364
11
27.391084248777947
21
-10.617491820782199
31
-0.001453519807146364
0
LINE
5
575
100
AcDbEntity
8
0
100
AcDbLine
10
19.862961615276124
20
-23.764051448721098
30
-0.001453519807146364
11
17.553560538517633
21
-19.764051448721077
31
-0.001453519807146364
0
LINE
5
576
100
AcDbEntity
8
0
100
AcDbLine
10
19.862961615276124
20
-32.564051448721109
30
-0.001453519807146364
11
17.553560538517633
21
-28.564051448721088
31
-0.001453519807146364
0
LINE
5
577
100
AcDbEntity
8
0
100
AcDbLine
10
12.211084248777947
20
33.382508179217815
30
-0.001453519807146364
11
9.9016831720194407
21
37.382508179217801
31
-0.001453519807146364
0
LINE
5
578
100
AcDbEntity
8
0
100
AcDbLine
10
27.391084248777947
20
33.382508179217815
30
-0.001453519807146364
11
25.081683172019439
21
37.382508179217801
31
-0.001453519807146364
0
LINE
5
579
100
AcDbEntity
8
0
100
AcDbLine
10
25.081683172019456
20
38.182508179217784
30
-0.001453519807146364
11
27.391084248777947
21
42.182508179217805
31
-0.001453519807146364
0
LINE
5
580
100
AcDbEntity
8
0
100
AcDbLine
10
17.55356053851758
20
-27.764051448721084
30
-0.001453519807146364
11
19.862961615276124
21
-23.764051448721098
31
-0.001453519807146364
0
LINE
5
581
100
AcDbEntity
8
0
100
AcDbLine
10
2.9734799417439159
20
42.182508179217805
30
-0.001453519807146364
11
5.2828810185024242
21
38.182508179217784
31
-0.001453519807146364
0
LINE
5
582
100
AcDbEntity
8
0
100
AcDbLine
10
5.2828810185024242
20
46.98250817921781
30
-0.001453519807146364
11
9.9016831720194585
21
46.98250817921781
31
-0.001453519807146364
0
LINE
5
583
100
AcDbEntity
8
0
100
AcDbLine
10
12.934758385000563
20
42.635948551278943
30
-0.001453519807146364
11
17.55356053851758
21
42.635948551278922
31
-0.001453519807146364
0
LINE
5
584
100
AcDbEntity
8
0
100
AcDbLine
10
20.462881018502422
20
-14.617491820782211
30
-0.001453519807146364
11
25.081683172019456
21
-14.617491820782211
31
-0.001453519807146364
0
LINE
5
585
100
AcDbEntity
8
0
100
AcDbLine
10
17.55356053851758
20
-36.564051448721095
30
-0.001453519807146364
11
19.862961615276124
21
-32.564051448721109
31
-0.001453519807146364
0
LINE
5
586
100
AcDbEntity
8
0
100
AcDbLine
10
2.3735605385176326
20
33.035948551278935
30
-0.001453519807146364
11
-2.2452416149993839
21
33.03594855127897
31
-0.001453519807146364
0
LINE
5
587
100
AcDbEntity
8
0
100
AcDbLine
10
9.9016831720194407
20
37.382508179217801
30
-0.001453519807146364
11
5.2828810185024242
21
37.382508179217801
31
-0.001453519807146364
0
LINE
5
588
100
AcDbEntity
8
0
100
AcDbLine
10
25.081683172019439
20
-24.2174918207822
30
-0.001453519807146364
11
20.462881018502422
21
-24.217491820782211
31
-0.001453519807146364
0
LINE
5
589
100
AcDbEntity
8
0
100
AcDbLine
10
25.081683172019456
20
-32.217491820782215
30
-0.001453519807146364
11
27.391084248777947
21
-28.217491820782207
31
-0.001453519807146364
0
LINE
5
590
100
AcDbEntity
8
0
100
AcDbLine
10
20.462881018502422
20
-33.017491820782212
30
-0.001453519807146364
11
18.153479941743914
21
-37.017491820782212
31
-0.001453519807146364
0
LINE
5
591
100
AcDbEntity
8
0
100
AcDbLine
10
5.2828810185024242
20
37.382508179217801
30
-0.001453519807146364
11
2.9734799417439159
21
33.382508179217794
31
-0.001453519807146364
0
LINE
5
592
100
AcDbEntity
8
0
100
AcDbLine
10
20.462881018502422
20
-5.8174918207822124
30
-0.001453519807146364
11
25.081683172019456
21
-5.8174918207822124
31
-0.001453519807146364
0
LINE
5
593
100
AcDbEntity
8
0
100
AcDbLine
10
18.153479941743914
20
-28.217491820782215
30
-0.001453519807146364
11
20.462881018502422
21
-32.217491820782215
31
-0.001453519807146364
0
LINE
5
594
100
AcDbEntity
8
0
100
AcDbLine
10
20.462881018502422
20
37.382508179217801
30
-0.001453519807146364
11
18.153479941743914
21
33.382508179217794
31
-0.001453519807146364
0
LINE
5
595
100
AcDbEntity
8
0
100
AcDbLine
10
25.081683172019439
20
-15.417491820782194
30
-0.001453519807146364
11
20.462881018502422
21
-15.417491820782212
31
-0.001453519807146364
0
LINE
5
596
100
AcDbEntity
8
0
100
AcDbLine
10
20.462881018502422
20
-24.217491820782211
30
-0.001453519807146364
11
18.153479941743914
21
-28.217491820782215
31
-0.001453519807146364
0
LINE
5
597
100
AcDbEntity
8
0
100
AcDbLine
10
25.081683172019439
20
-6.6174918207821953
30
-0.001453519807146364
11
20.462881018502422
21
-6.6174918207822042
31
-0.001453519807146364
0
LINE
5
598
100
AcDbEntity
8
0
100
AcDbLine
10
5.2828810185024242
20
38.182508179217784
30
-0.001453519807146364
11
9.9016831720194585
21
38.182508179217784
31
-0.001453519807146364
0
LINE
5
599
100
AcDbEntity
8
0
100
AcDbLine
10
27.391084248777947
20
-10.617491820782199
30
-0.001453519807146364
11
25.081683172019439
21
-6.6174918207821953
31
-0.001453519807146364
0
LINE
5
600
100
AcDbEntity
8
0
100
AcDbLine
10
20.462881018502422
20
-32.217491820782215
30
-0.001453519807146364
11
25.081683172019456
21
-32.217491820782215
31
-0.001453519807146364
0
LINE
5
601
100
AcDbEntity
8
0
100
AcDbLine
10
-4.5546426917579277
20
-58.964051448721044
30
-0.001453519807146364
11
-0.38267522445035784
21
-58.964051448721044
31
-0.001453519807146364
0
LINE
5
602
100
AcDbEntity
8
0
100
AcDbLine
10
-4.5546426917579277
20
-58.964051448721044
30
-0.001453519807146364
11
-2.2451426917579291
21
-62.964222788801365
31
-0.0014535198072079378
0
LINE
5
603
100
AcDbEntity
8
0
100
AcDbLine
10
-4.5546426917579277
20
-58.964051448721044
30
-0.001453519807146364
11
0.064357308242072309
21
-58.964051448721044
31
-0.001453519807146364
0
LINE
5
604
100
AcDbEntity
8
0
100
AcDbLine
10
-2.2467806621213975
20
-62.961385740910544
30
-0.0014535198072078942
11
2.3722193378786023
21
-62.961385740910544
31
-0.0014535198072078942
0
LINE
5
605
100
AcDbEntity
8
0
100
AcDbLine
10
2.3722193378786023
20
-62.961385740910544
30
-0.0014535198072078942
11
4.6829616152760831
21
-58.964051448721044
31
-0.001453519807146364
0
ENDSEC
0
SECTION
2
OBJECTS
0
DICTIONARY
5
C
100
AcDbDictionary
3
ACAD_GROUP
350
D
3
ACAD_MLINESTYLE
350
17
0
DICTIONARY
5
D
100
AcDbDictionary
0
DICTIONARY
5
1A
330
C
100
AcDbDictionary
0
DICTIONARY
5
17
100
AcDbDictionary
0
ENDSEC
0
EOF
